<svg width="339" height="69" viewBox="0 0 339 69" fill="none" xmlns="http://www.w3.org/2000/svg">
<g filter="url(#filter0_d_427_5589)">
<rect x="4" width="331" height="61" rx="15" fill="black" shape-rendering="crispEdges"/>
<path d="M85.9673 36.924C85.6195 37.7275 85.2078 38.4672 84.7308 39.1472C84.0805 40.0743 83.5481 40.716 83.1378 41.0724C82.5018 41.6573 81.8204 41.9568 81.0906 41.9739C80.5667 41.9739 79.935 41.8248 79.1996 41.5224C78.4617 41.2214 77.7837 41.0724 77.1637 41.0724C76.5135 41.0724 75.8161 41.2214 75.0702 41.5224C74.3231 41.8248 73.7213 41.9824 73.2612 41.998C72.5614 42.0278 71.8639 41.7197 71.1677 41.0724C70.7233 40.6848 70.1675 40.0204 69.5017 39.0791C68.7873 38.0739 68.1999 36.9084 67.7398 35.5795C67.247 34.1442 67 32.7543 67 31.4087C67 29.8673 67.3331 28.5379 68.0002 27.4238C68.5245 26.529 69.222 25.8231 70.095 25.3049C70.9679 24.7867 71.9112 24.5227 72.927 24.5058C73.4828 24.5058 74.2117 24.6777 75.1175 25.0156C76.0207 25.3546 76.6006 25.5265 76.8549 25.5265C77.045 25.5265 77.6893 25.3255 78.7815 24.9247C79.8143 24.5531 80.686 24.3992 81.4001 24.4598C83.3352 24.6159 84.789 25.3788 85.7558 26.753C84.0252 27.8016 83.1691 29.2703 83.1861 31.1544C83.2017 32.622 83.7341 33.8432 84.7804 34.8129C85.2546 35.2629 85.7842 35.6107 86.3734 35.8578C86.2456 36.2283 86.1107 36.5832 85.9673 36.924ZM81.5293 19.4601C81.5293 20.6104 81.1091 21.6844 80.2714 22.6785C79.2606 23.8602 78.038 24.5431 76.7121 24.4354C76.6952 24.2974 76.6854 24.1521 76.6854 23.9995C76.6854 22.8953 77.1661 21.7135 78.0198 20.7472C78.446 20.258 78.988 19.8512 79.6454 19.5267C80.3013 19.2071 80.9217 19.0303 81.5052 19C81.5222 19.1538 81.5293 19.3076 81.5293 19.4601V19.4601Z" fill="white"/>
<path d="M108.582 37.8223C109.682 37.8223 110.633 37.6465 111.434 37.2949C112.241 36.9368 112.863 36.4355 113.299 35.791C113.742 35.14 113.963 34.3685 113.963 33.4766V33.4668C113.963 32.4121 113.637 31.5723 112.986 30.9473C112.335 30.3223 111.271 29.8535 109.793 29.541L108.26 29.209C107.355 29.0137 106.701 28.7435 106.297 28.3984C105.9 28.0534 105.701 27.6204 105.701 27.0996V27.0898C105.701 26.6536 105.822 26.2793 106.062 25.9668C106.31 25.6543 106.648 25.4167 107.078 25.2539C107.508 25.0846 107.999 25 108.553 25C109.119 24.9935 109.614 25.0781 110.037 25.2539C110.467 25.4232 110.809 25.6576 111.062 25.957C111.323 26.2565 111.486 26.6081 111.551 27.0117L111.57 27.1289H113.699L113.689 26.9922C113.637 26.25 113.393 25.5859 112.957 25C112.527 24.4076 111.938 23.9421 111.189 23.6035C110.447 23.2585 109.581 23.0859 108.592 23.0859C107.596 23.0859 106.714 23.2617 105.945 23.6133C105.177 23.9583 104.575 24.4401 104.139 25.0586C103.702 25.6706 103.481 26.3835 103.475 27.1973V27.207C103.475 28.2422 103.803 29.0918 104.461 29.7559C105.118 30.4134 106.157 30.8952 107.576 31.2012L109.109 31.5332C110.047 31.735 110.717 32.0117 111.121 32.3633C111.531 32.7083 111.736 33.1543 111.736 33.7012V33.7109C111.736 34.1471 111.606 34.5312 111.346 34.8633C111.085 35.1953 110.724 35.4525 110.262 35.6348C109.806 35.8171 109.275 35.9082 108.67 35.9082C108.045 35.9082 107.485 35.8236 106.99 35.6543C106.502 35.4785 106.111 35.2344 105.818 34.9219C105.532 34.6094 105.363 34.2383 105.311 33.8086L105.301 33.7012H103.143L103.152 33.8281C103.217 34.6289 103.478 35.3288 103.934 35.9277C104.396 36.5202 105.021 36.9857 105.809 37.3242C106.596 37.6562 107.521 37.8223 108.582 37.8223ZM116.414 37.5H118.533V26.9727H116.414V37.5ZM117.479 25.1562C117.843 25.1562 118.152 25.0293 118.406 24.7754C118.66 24.515 118.787 24.209 118.787 23.8574C118.787 23.4928 118.66 23.1868 118.406 22.9395C118.152 22.6855 117.843 22.5586 117.479 22.5586C117.12 22.5586 116.811 22.6855 116.551 22.9395C116.297 23.1868 116.17 23.4928 116.17 23.8574C116.17 24.209 116.297 24.515 116.551 24.7754C116.811 25.0293 117.12 25.1562 117.479 25.1562ZM125.896 41.2109C126.893 41.2109 127.755 41.0482 128.484 40.7227C129.214 40.3971 129.777 39.9382 130.174 39.3457C130.571 38.7598 130.77 38.0664 130.77 37.2656V26.9727H128.65V28.7207H128.543C128.335 28.3236 128.071 27.9818 127.752 27.6953C127.439 27.4023 127.075 27.1777 126.658 27.0215C126.248 26.8652 125.796 26.7871 125.301 26.7871C124.396 26.7871 123.615 27.0052 122.957 27.4414C122.299 27.8776 121.788 28.4863 121.424 29.2676C121.066 30.0423 120.887 30.9408 120.887 31.9629V31.9824C120.887 32.998 121.066 33.89 121.424 34.6582C121.782 35.4264 122.286 36.0286 122.938 36.4648C123.595 36.8945 124.37 37.1094 125.262 37.1094C125.75 37.1094 126.202 37.041 126.619 36.9043C127.036 36.7611 127.404 36.556 127.723 36.2891C128.048 36.0156 128.315 35.6868 128.523 35.3027H128.66V37.2266C128.66 37.9492 128.419 38.5091 127.938 38.9062C127.456 39.3099 126.782 39.5117 125.916 39.5117C125.219 39.5117 124.656 39.3978 124.227 39.1699C123.803 38.9421 123.543 38.6491 123.445 38.291L123.426 38.2617H121.287V38.3008C121.378 38.8737 121.616 39.3783 122 39.8145C122.391 40.2507 122.915 40.5924 123.572 40.8398C124.23 41.0872 125.005 41.2109 125.896 41.2109ZM125.848 35.3613C125.262 35.3613 124.76 35.2214 124.344 34.9414C123.927 34.6549 123.608 34.2611 123.387 33.7598C123.165 33.252 123.055 32.6595 123.055 31.9824V31.9727C123.055 31.3021 123.165 30.7129 123.387 30.2051C123.608 29.6973 123.927 29.3034 124.344 29.0234C124.76 28.737 125.262 28.5938 125.848 28.5938C126.434 28.5938 126.938 28.737 127.361 29.0234C127.785 29.3034 128.11 29.6973 128.338 30.2051C128.572 30.7129 128.689 31.3021 128.689 31.9727V31.9922C128.689 32.6562 128.572 33.2422 128.338 33.75C128.11 34.2578 127.785 34.6549 127.361 34.9414C126.938 35.2214 126.434 35.3613 125.848 35.3613ZM133.592 37.5H135.721V31.3281C135.721 30.7682 135.822 30.2832 136.023 29.873C136.225 29.4629 136.512 29.1471 136.883 28.9258C137.26 28.6979 137.703 28.584 138.211 28.584C138.979 28.584 139.549 28.7988 139.92 29.2285C140.291 29.6582 140.477 30.3027 140.477 31.1621V37.5H142.596V30.6836C142.596 29.4401 142.28 28.4766 141.648 27.793C141.023 27.1094 140.122 26.7676 138.943 26.7676C138.169 26.7676 137.524 26.9303 137.01 27.2559C136.502 27.5749 136.118 28.0111 135.857 28.5645H135.721V26.9727H133.592V37.5ZM150.496 37.5H152.615V26.9727H150.496V37.5ZM151.561 25.1562C151.925 25.1562 152.234 25.0293 152.488 24.7754C152.742 24.515 152.869 24.209 152.869 23.8574C152.869 23.4928 152.742 23.1868 152.488 22.9395C152.234 22.6855 151.925 22.5586 151.561 22.5586C151.202 22.5586 150.893 22.6855 150.633 22.9395C150.379 23.1868 150.252 23.4928 150.252 23.8574C150.252 24.209 150.379 24.515 150.633 24.7754C150.893 25.0293 151.202 25.1562 151.561 25.1562ZM155.486 37.5H157.615V31.3281C157.615 30.7682 157.716 30.2832 157.918 29.873C158.12 29.4629 158.406 29.1471 158.777 28.9258C159.155 28.6979 159.598 28.584 160.105 28.584C160.874 28.584 161.443 28.7988 161.814 29.2285C162.186 29.6582 162.371 30.3027 162.371 31.1621V37.5H164.49V30.6836C164.49 29.4401 164.174 28.4766 163.543 27.793C162.918 27.1094 162.016 26.7676 160.838 26.7676C160.063 26.7676 159.419 26.9303 158.904 27.2559C158.396 27.5749 158.012 28.0111 157.752 28.5645H157.615V26.9727H155.486V37.5ZM174.373 37.5H176.551L178.729 29.6387H178.865L181.043 37.5H183.24L186.131 26.9727H184.031L182.137 35.1367H182.01L179.832 26.9727H177.811L175.633 35.1367H175.496L173.611 26.9727H171.482L174.373 37.5ZM188.133 37.5H190.252V26.9727H188.133V37.5ZM189.197 25.1562C189.562 25.1562 189.871 25.0293 190.125 24.7754C190.379 24.515 190.506 24.209 190.506 23.8574C190.506 23.4928 190.379 23.1868 190.125 22.9395C189.871 22.6855 189.562 22.5586 189.197 22.5586C188.839 22.5586 188.53 22.6855 188.27 22.9395C188.016 23.1868 187.889 23.4928 187.889 23.8574C187.889 24.209 188.016 24.515 188.27 24.7754C188.53 25.0293 188.839 25.1562 189.197 25.1562ZM197.039 37.5977C197.247 37.5977 197.449 37.5879 197.645 37.5684C197.84 37.5488 198.016 37.526 198.172 37.5V35.8203C198.042 35.8268 197.921 35.8366 197.811 35.8496C197.7 35.8561 197.57 35.8594 197.42 35.8594C196.919 35.8594 196.551 35.7389 196.316 35.498C196.089 35.2572 195.975 34.86 195.975 34.3066V28.6523H198.172V26.9727H195.975V24.2969H193.807V26.9727H192.195V28.6523H193.807V34.7266C193.807 35.7422 194.064 36.4746 194.578 36.9238C195.092 37.373 195.913 37.5977 197.039 37.5977ZM200.564 37.5H202.684V31.3379C202.684 30.778 202.785 30.293 202.986 29.8828C203.195 29.4727 203.484 29.1536 203.855 28.9258C204.227 28.6979 204.666 28.584 205.174 28.584C205.949 28.584 206.525 28.8086 206.902 29.2578C207.28 29.7005 207.469 30.3581 207.469 31.2305V37.5H209.588V30.752C209.588 29.9186 209.445 29.2057 209.158 28.6133C208.872 28.0143 208.455 27.5586 207.908 27.2461C207.361 26.9271 206.697 26.7676 205.916 26.7676C205.148 26.7676 204.503 26.9303 203.982 27.2559C203.468 27.5749 203.081 28.0241 202.82 28.6035H202.684V22.8906H200.564V37.5ZM216.619 37.5H218.924L222.83 25.8496H223.484V23.4082H221.707L216.619 37.5ZM219.08 33.6914H226.717L226.102 31.9336H219.695L219.08 33.6914ZM226.873 37.5H229.178L224.08 23.4082H222.967V25.8496L226.873 37.5ZM231.17 41.0059H233.299V35.8105H233.436C233.624 36.1947 233.882 36.5267 234.207 36.8066C234.533 37.0866 234.904 37.3047 235.32 37.4609C235.743 37.6107 236.199 37.6855 236.688 37.6855C237.579 37.6855 238.351 37.4642 239.002 37.0215C239.653 36.5788 240.158 35.9505 240.516 35.1367C240.874 34.3229 241.053 33.3594 241.053 32.2461V32.2266C241.053 31.1198 240.874 30.1595 240.516 29.3457C240.158 28.5319 239.65 27.9036 238.992 27.4609C238.341 27.0117 237.57 26.7871 236.678 26.7871C236.183 26.7871 235.727 26.862 235.311 27.0117C234.9 27.1615 234.536 27.3763 234.217 27.6562C233.898 27.9362 233.637 28.2715 233.436 28.6621H233.299V26.9727H231.17V41.0059ZM236.082 35.8691C235.509 35.8691 235.011 35.7227 234.588 35.4297C234.171 35.1302 233.846 34.7103 233.611 34.1699C233.383 33.6296 233.27 32.9883 233.27 32.2461V32.2266C233.27 31.4779 233.383 30.8333 233.611 30.293C233.839 29.7526 234.165 29.3359 234.588 29.043C235.011 28.75 235.509 28.6035 236.082 28.6035C236.668 28.6035 237.169 28.75 237.586 29.043C238.003 29.3294 238.322 29.7428 238.543 30.2832C238.771 30.8236 238.885 31.4714 238.885 32.2266V32.2461C238.885 32.9948 238.771 33.6393 238.543 34.1797C238.322 34.7201 238.003 35.1367 237.586 35.4297C237.169 35.7227 236.668 35.8691 236.082 35.8691ZM243.377 41.0059H245.506V35.8105H245.643C245.831 36.1947 246.089 36.5267 246.414 36.8066C246.74 37.0866 247.111 37.3047 247.527 37.4609C247.951 37.6107 248.406 37.6855 248.895 37.6855C249.786 37.6855 250.558 37.4642 251.209 37.0215C251.86 36.5788 252.365 35.9505 252.723 35.1367C253.081 34.3229 253.26 33.3594 253.26 32.2461V32.2266C253.26 31.1198 253.081 30.1595 252.723 29.3457C252.365 28.5319 251.857 27.9036 251.199 27.4609C250.548 27.0117 249.777 26.7871 248.885 26.7871C248.39 26.7871 247.934 26.862 247.518 27.0117C247.107 27.1615 246.743 27.3763 246.424 27.6562C246.105 27.9362 245.844 28.2715 245.643 28.6621H245.506V26.9727H243.377V41.0059ZM248.289 35.8691C247.716 35.8691 247.218 35.7227 246.795 35.4297C246.378 35.1302 246.053 34.7103 245.818 34.1699C245.59 33.6296 245.477 32.9883 245.477 32.2461V32.2266C245.477 31.4779 245.59 30.8333 245.818 30.293C246.046 29.7526 246.372 29.3359 246.795 29.043C247.218 28.75 247.716 28.6035 248.289 28.6035C248.875 28.6035 249.376 28.75 249.793 29.043C250.21 29.3294 250.529 29.7428 250.75 30.2832C250.978 30.8236 251.092 31.4714 251.092 32.2266V32.2461C251.092 32.9948 250.978 33.6393 250.75 34.1797C250.529 34.7201 250.21 35.1367 249.793 35.4297C249.376 35.7227 248.875 35.8691 248.289 35.8691ZM255.682 37.5H257.801V22.8906H255.682V37.5ZM265.164 37.7051C265.828 37.7051 266.421 37.6204 266.941 37.4512C267.469 37.2754 267.918 37.0443 268.289 36.7578C268.667 36.4648 268.969 36.1426 269.197 35.791C269.425 35.4329 269.581 35.0716 269.666 34.707L269.686 34.6191H267.645L267.615 34.6973C267.531 34.8991 267.384 35.0977 267.176 35.293C266.967 35.4818 266.697 35.6413 266.365 35.7715C266.04 35.9017 265.656 35.9668 265.213 35.9668C264.627 35.9668 264.119 35.8366 263.689 35.5762C263.26 35.3158 262.928 34.9414 262.693 34.4531C262.459 33.9648 262.342 33.3757 262.342 32.6855V31.8457C262.342 31.123 262.459 30.5143 262.693 30.0195C262.934 29.5182 263.26 29.1406 263.67 28.8867C264.08 28.6328 264.546 28.5059 265.066 28.5059C265.587 28.5059 266.046 28.6296 266.443 28.877C266.847 29.1178 267.163 29.4857 267.391 29.9805C267.618 30.4688 267.732 31.0905 267.732 31.8457V32.6758L268.758 31.2793H261.287V32.793H269.803V32.0508C269.803 30.9961 269.611 30.0749 269.227 29.2871C268.849 28.4928 268.305 27.8743 267.596 27.4316C266.886 26.9889 266.04 26.7676 265.057 26.7676C264.074 26.7676 263.217 26.9987 262.488 27.4609C261.766 27.9167 261.206 28.5547 260.809 29.375C260.411 30.1953 260.213 31.1556 260.213 32.2559V32.2656C260.213 33.3789 260.411 34.3424 260.809 35.1562C261.206 35.9701 261.772 36.5983 262.508 37.041C263.25 37.4837 264.135 37.7051 265.164 37.7051Z" fill="white"/>
</g>
<defs>
<filter id="filter0_d_427_5589" x="0" y="0" width="339" height="69" filterUnits="userSpaceOnUse" color-interpolation-filters="sRGB">
<feFlood flood-opacity="0" result="BackgroundImageFix"/>
<feColorMatrix in="SourceAlpha" type="matrix" values="0 0 0 0 0 0 0 0 0 0 0 0 0 0 0 0 0 0 127 0" result="hardAlpha"/>
<feOffset dy="4"/>
<feGaussianBlur stdDeviation="2"/>
<feComposite in2="hardAlpha" operator="out"/>
<feColorMatrix type="matrix" values="0 0 0 0 0 0 0 0 0 0 0 0 0 0 0 0 0 0 0.25 0"/>
<feBlend mode="normal" in2="BackgroundImageFix" result="effect1_dropShadow_427_5589"/>
<feBlend mode="normal" in="SourceGraphic" in2="effect1_dropShadow_427_5589" result="shape"/>
</filter>
</defs>
</svg>
