<svg width="331" height="61" viewBox="0 0 331 61" fill="none" xmlns="http://www.w3.org/2000/svg">
<g filter="url(#filter0_d_428_361)">
<rect width="331" height="61" rx="15" fill="white" shape-rendering="crispEdges"/>
<path d="M102.821 26.7756C102.746 26.1032 102.433 25.5824 101.884 25.2131C101.335 24.839 100.643 24.652 99.8099 24.652C99.2133 24.652 98.6972 24.7467 98.2616 24.9361C97.826 25.1207 97.4875 25.3764 97.246 25.7031C97.0093 26.0251 96.8909 26.392 96.8909 26.804C96.8909 27.1496 96.9714 27.4479 97.1324 27.6989C97.2981 27.9498 97.5135 28.1605 97.7787 28.331C98.0486 28.4967 98.3374 28.6364 98.6452 28.75C98.9529 28.8589 99.2488 28.9489 99.5329 29.0199L100.953 29.3892C101.417 29.5028 101.893 29.6567 102.381 29.8509C102.869 30.045 103.321 30.3007 103.737 30.6179C104.154 30.9351 104.49 31.3281 104.746 31.7969C105.006 32.2656 105.137 32.8267 105.137 33.4801C105.137 34.304 104.924 35.0355 104.497 35.6747C104.076 36.3139 103.463 36.8182 102.658 37.1875C101.858 37.5568 100.889 37.7415 99.7531 37.7415C98.6641 37.7415 97.7219 37.5687 96.9264 37.223C96.1309 36.8774 95.5083 36.3873 95.0585 35.7528C94.6087 35.1136 94.3601 34.3561 94.3128 33.4801H96.5145C96.5571 34.0057 96.7275 34.4437 97.0258 34.794C97.3289 35.1397 97.7148 35.3977 98.1835 35.5682C98.657 35.7339 99.1755 35.8168 99.7389 35.8168C100.359 35.8168 100.911 35.7197 101.394 35.5256C101.881 35.3267 102.265 35.0521 102.544 34.7017C102.824 34.3466 102.963 33.9323 102.963 33.4588C102.963 33.0279 102.84 32.6752 102.594 32.4006C102.353 32.1259 102.023 31.8987 101.607 31.7188C101.195 31.5388 100.728 31.3802 100.208 31.2429L98.4889 30.7741C97.3241 30.4569 96.4008 29.9905 95.719 29.375C95.0419 28.7595 94.7034 27.9451 94.7034 26.9318C94.7034 26.0937 94.9307 25.3622 95.3852 24.7372C95.8398 24.1122 96.4553 23.6269 97.2318 23.2812C98.0083 22.9309 98.8843 22.7557 99.8596 22.7557C100.844 22.7557 101.713 22.9285 102.466 23.2741C103.224 23.6198 103.82 24.0956 104.256 24.7017C104.692 25.303 104.919 25.9943 104.938 26.7756H102.821ZM107.589 37.5V26.5909H109.712V37.5H107.589ZM108.661 24.9077C108.292 24.9077 107.975 24.7846 107.709 24.5384C107.449 24.2874 107.319 23.9891 107.319 23.6435C107.319 23.2931 107.449 22.9948 107.709 22.7486C107.975 22.4976 108.292 22.3722 108.661 22.3722C109.03 22.3722 109.345 22.4976 109.606 22.7486C109.871 22.9948 110.003 23.2931 110.003 23.6435C110.003 23.9891 109.871 24.2874 109.606 24.5384C109.345 24.7846 109.03 24.9077 108.661 24.9077ZM117.143 41.8182C116.277 41.8182 115.531 41.7045 114.906 41.4773C114.286 41.25 113.779 40.9493 113.386 40.5753C112.993 40.2012 112.699 39.7917 112.505 39.3466L114.331 38.5938C114.458 38.8021 114.629 39.0223 114.842 39.2543C115.06 39.491 115.353 39.6922 115.723 39.858C116.097 40.0237 116.577 40.1065 117.164 40.1065C117.969 40.1065 118.634 39.91 119.16 39.517C119.686 39.1288 119.948 38.5085 119.948 37.6562V35.5114H119.813C119.686 35.7434 119.501 36.0014 119.259 36.2855C119.023 36.5696 118.696 36.8158 118.279 37.0241C117.863 37.2325 117.321 37.3366 116.653 37.3366C115.791 37.3366 115.015 37.1354 114.323 36.733C113.637 36.3258 113.092 35.7268 112.69 34.9361C112.292 34.1406 112.093 33.1629 112.093 32.0028C112.093 30.8428 112.29 29.8485 112.683 29.0199C113.081 28.1913 113.625 27.5568 114.316 27.1165C115.008 26.6714 115.791 26.4489 116.667 26.4489C117.344 26.4489 117.891 26.5625 118.308 26.7898C118.724 27.0123 119.049 27.2727 119.281 27.571C119.518 27.8693 119.7 28.1321 119.828 28.3594H119.984V26.5909H122.065V37.7415C122.065 38.679 121.847 39.4484 121.411 40.0497C120.976 40.651 120.386 41.0961 119.643 41.3849C118.904 41.6738 118.071 41.8182 117.143 41.8182ZM117.122 35.5753C117.733 35.5753 118.249 35.4332 118.67 35.1491C119.096 34.8603 119.418 34.4484 119.636 33.9134C119.858 33.3736 119.97 32.7273 119.97 31.9744C119.97 31.2405 119.861 30.5942 119.643 30.0355C119.425 29.4768 119.106 29.0412 118.684 28.7287C118.263 28.4115 117.742 28.2528 117.122 28.2528C116.483 28.2528 115.95 28.4186 115.524 28.75C115.098 29.0767 114.776 29.5218 114.558 30.0852C114.345 30.6487 114.238 31.2784 114.238 31.9744C114.238 32.6894 114.347 33.3168 114.565 33.8565C114.783 34.3963 115.105 34.8177 115.531 35.1207C115.962 35.4238 116.492 35.5753 117.122 35.5753ZM127.036 31.0227V37.5H124.913V26.5909H126.951V28.3665H127.086C127.337 27.7888 127.73 27.3248 128.265 26.9744C128.805 26.6241 129.484 26.4489 130.304 26.4489C131.047 26.4489 131.698 26.6051 132.257 26.9176C132.815 27.2254 133.249 27.6847 133.556 28.2955C133.864 28.9062 134.018 29.6615 134.018 30.5611V37.5H131.894V30.8168C131.894 30.026 131.688 29.4081 131.277 28.9631C130.865 28.5133 130.299 28.2884 129.579 28.2884C129.087 28.2884 128.649 28.3949 128.265 28.608C127.886 28.821 127.586 29.1335 127.363 29.5455C127.145 29.9527 127.036 30.4451 127.036 31.0227ZM142.159 37.5V26.5909H144.283V37.5H142.159ZM143.231 24.9077C142.862 24.9077 142.545 24.7846 142.28 24.5384C142.019 24.2874 141.889 23.9891 141.889 23.6435C141.889 23.2931 142.019 22.9948 142.28 22.7486C142.545 22.4976 142.862 22.3722 143.231 22.3722C143.601 22.3722 143.916 22.4976 144.176 22.7486C144.441 22.9948 144.574 23.2931 144.574 23.6435C144.574 23.9891 144.441 24.2874 144.176 24.5384C143.916 24.7846 143.601 24.9077 143.231 24.9077ZM149.263 31.0227V37.5H147.139V26.5909H149.178V28.3665H149.313C149.564 27.7888 149.957 27.3248 150.492 26.9744C151.032 26.6241 151.711 26.4489 152.53 26.4489C153.273 26.4489 153.925 26.6051 154.483 26.9176C155.042 27.2254 155.475 27.6847 155.783 28.2955C156.091 28.9062 156.245 29.6615 156.245 30.5611V37.5H154.121V30.8168C154.121 30.026 153.915 29.4081 153.503 28.9631C153.091 28.5133 152.525 28.2884 151.806 28.2884C151.313 28.2884 150.875 28.3949 150.492 28.608C150.113 28.821 149.812 29.1335 149.59 29.5455C149.372 29.9527 149.263 30.4451 149.263 31.0227ZM166.751 37.5L163.54 26.5909H165.735L167.873 34.6023H167.979L170.124 26.5909H172.319L174.449 34.5668H174.556L176.68 26.5909H178.874L175.671 37.5H173.505L171.289 29.6236H171.126L168.91 37.5H166.751ZM180.889 37.5V26.5909H183.013V37.5H180.889ZM181.962 24.9077C181.593 24.9077 181.275 24.7846 181.01 24.5384C180.75 24.2874 180.62 23.9891 180.62 23.6435C180.62 23.2931 180.75 22.9948 181.01 22.7486C181.275 22.4976 181.593 22.3722 181.962 22.3722C182.331 22.3722 182.646 22.4976 182.907 22.7486C183.172 22.9948 183.304 23.2931 183.304 23.6435C183.304 23.9891 183.172 24.2874 182.907 24.5384C182.646 24.7846 182.331 24.9077 181.962 24.9077ZM190.962 26.5909V28.2955H185.003V26.5909H190.962ZM186.601 23.9773H188.725V34.2969C188.725 34.7088 188.787 35.0189 188.91 35.2273C189.033 35.4309 189.191 35.5705 189.386 35.6463C189.584 35.7173 189.8 35.7528 190.032 35.7528C190.202 35.7528 190.351 35.741 190.479 35.7173C190.607 35.6937 190.707 35.6747 190.778 35.6605L191.161 37.4148C191.038 37.4621 190.863 37.5095 190.636 37.5568C190.408 37.6089 190.124 37.6373 189.783 37.642C189.225 37.6515 188.704 37.5521 188.221 37.3438C187.738 37.1354 187.347 36.8134 187.049 36.3778C186.751 35.9422 186.601 35.3954 186.601 34.7372V23.9773ZM195.669 31.0227V37.5H193.546V22.9545H195.641V28.3665H195.776C196.032 27.7794 196.422 27.313 196.948 26.9673C197.473 26.6217 198.16 26.4489 199.007 26.4489C199.755 26.4489 200.409 26.6027 200.968 26.9105C201.531 27.2183 201.967 27.6776 202.274 28.2884C202.587 28.8944 202.743 29.652 202.743 30.5611V37.5H200.62V30.8168C200.62 30.0166 200.414 29.3963 200.002 28.956C199.59 28.5109 199.017 28.2884 198.283 28.2884C197.781 28.2884 197.331 28.3949 196.934 28.608C196.541 28.821 196.23 29.1335 196.003 29.5455C195.781 29.9527 195.669 30.4451 195.669 31.0227ZM210.323 24.8438V22.9545H221.58V24.8438H217.042V37.5H214.854V24.8438H210.323ZM225.012 37.5L221.802 26.5909H223.997L226.134 34.6023H226.241L228.386 26.5909H230.581L232.711 34.5668H232.818L234.941 26.5909H237.136L233.933 37.5H231.767L229.551 29.6236H229.387L227.171 37.5H225.012ZM239.151 37.5V26.5909H241.275V37.5H239.151ZM240.224 24.9077C239.854 24.9077 239.537 24.7846 239.272 24.5384C239.012 24.2874 238.881 23.9891 238.881 23.6435C238.881 23.2931 239.012 22.9948 239.272 22.7486C239.537 22.4976 239.854 22.3722 240.224 22.3722C240.593 22.3722 240.908 22.4976 241.168 22.7486C241.433 22.9948 241.566 23.2931 241.566 23.6435C241.566 23.9891 241.433 24.2874 241.168 24.5384C240.908 24.7846 240.593 24.9077 240.224 24.9077ZM249.224 26.5909V28.2955H243.265V26.5909H249.224ZM244.863 23.9773H246.987V34.2969C246.987 34.7088 247.048 35.0189 247.171 35.2273C247.295 35.4309 247.453 35.5705 247.647 35.6463C247.846 35.7173 248.062 35.7528 248.294 35.7528C248.464 35.7528 248.613 35.741 248.741 35.7173C248.869 35.6937 248.968 35.6747 249.039 35.6605L249.423 37.4148C249.3 37.4621 249.125 37.5095 248.897 37.5568C248.67 37.6089 248.386 37.6373 248.045 37.642C247.486 37.6515 246.965 37.5521 246.483 37.3438C246 37.1354 245.609 36.8134 245.311 36.3778C245.012 35.9422 244.863 35.3954 244.863 34.7372V23.9773ZM256.665 26.5909V28.2955H250.707V26.5909H256.665ZM252.305 23.9773H254.428V34.2969C254.428 34.7088 254.49 35.0189 254.613 35.2273C254.736 35.4309 254.895 35.5705 255.089 35.6463C255.288 35.7173 255.503 35.7528 255.735 35.7528C255.905 35.7528 256.055 35.741 256.182 35.7173C256.31 35.6937 256.41 35.6747 256.481 35.6605L256.864 37.4148C256.741 37.4621 256.566 37.5095 256.339 37.5568C256.111 37.6089 255.827 37.6373 255.486 37.642C254.928 37.6515 254.407 37.5521 253.924 37.3438C253.441 37.1354 253.05 36.8134 252.752 36.3778C252.454 35.9422 252.305 35.3954 252.305 34.7372V23.9773ZM263.599 37.7202C262.524 37.7202 261.599 37.4905 260.822 37.0312C260.05 36.5672 259.454 35.9162 259.032 35.0781C258.616 34.2353 258.407 33.2481 258.407 32.1165C258.407 30.9991 258.616 30.0142 259.032 29.1619C259.454 28.3097 260.041 27.6444 260.794 27.1662C261.551 26.688 262.437 26.4489 263.45 26.4489C264.065 26.4489 264.662 26.5507 265.24 26.7543C265.817 26.9579 266.336 27.2775 266.795 27.7131C267.254 28.1487 267.617 28.7145 267.882 29.4105C268.147 30.1018 268.279 30.9422 268.279 31.9318V32.6847H259.608V31.0938H266.198C266.198 30.535 266.085 30.0402 265.858 29.6094C265.63 29.1738 265.311 28.8305 264.899 28.5795C264.492 28.3286 264.013 28.2031 263.464 28.2031C262.867 28.2031 262.347 28.3499 261.902 28.6435C261.461 28.9323 261.12 29.3111 260.879 29.7798C260.642 30.2438 260.524 30.7481 260.524 31.2926V32.5355C260.524 33.2647 260.652 33.8849 260.907 34.3963C261.168 34.9077 261.53 35.2983 261.994 35.5682C262.458 35.8333 263 35.9659 263.62 35.9659C264.023 35.9659 264.39 35.9091 264.721 35.7955C265.053 35.6771 265.339 35.5019 265.581 35.2699C265.822 35.0379 266.007 34.7514 266.134 34.4105L268.144 34.7727C267.983 35.3646 267.695 35.883 267.278 36.3281C266.866 36.7685 266.348 37.1117 265.723 37.358C265.102 37.5994 264.394 37.7202 263.599 37.7202ZM270.636 37.5V26.5909H272.688V28.3239H272.802C273.001 27.7367 273.351 27.2751 273.853 26.9389C274.36 26.598 274.932 26.4276 275.572 26.4276C275.704 26.4276 275.86 26.4323 276.04 26.4418C276.225 26.4512 276.369 26.4631 276.474 26.4773V28.5085C276.388 28.4848 276.237 28.4588 276.019 28.4304C275.801 28.3973 275.583 28.3807 275.366 28.3807C274.864 28.3807 274.416 28.4872 274.023 28.7003C273.635 28.9086 273.327 29.1998 273.1 29.5739C272.873 29.9432 272.759 30.3646 272.759 30.8381V37.5H270.636Z" fill="#1D1C2B"/>
<path d="M57.8969 42C68.5729 42 74.4112 33.1521 74.4112 25.4796C74.4112 25.2283 74.4061 24.9782 74.3948 24.7291C75.5308 23.9068 76.5112 22.8886 77.29 21.7224C76.25 22.1849 75.1309 22.4962 73.9568 22.6366C75.1552 21.9178 76.0751 20.7806 76.5092 19.4251C75.3698 20.1012 74.1234 20.5779 72.8236 20.8345C71.7644 19.7059 70.2565 19 68.5869 19C65.3816 19 62.7823 21.6003 62.7823 24.8055C62.7823 25.2612 62.8333 25.7043 62.9329 26.1294C58.109 25.8866 53.8314 23.5761 50.9687 20.0629C50.4531 20.949 50.1819 21.9561 50.1828 22.9813C50.1828 24.9958 51.2074 26.7741 52.7657 27.8145C51.844 27.7863 50.9425 27.5372 50.137 27.0882C50.1361 27.1126 50.1361 27.1364 50.1361 27.1624C50.1361 29.9743 52.1368 32.3221 54.7926 32.8541C54.2938 32.99 53.7791 33.0587 53.2621 33.0584C52.8888 33.0584 52.5249 33.0217 52.1713 32.9538C52.9102 35.2608 55.0529 36.9396 57.5933 36.9865C55.6067 38.5441 53.1043 39.4719 50.3845 39.4719C49.9218 39.4723 49.4595 39.4454 49 39.3915C51.5688 41.0385 54.6189 41.9996 57.8972 41.9996" fill="#1D9BF0"/>
</g>
<defs>
<filter id="filter0_d_428_361" x="-4" y="0" width="339" height="69" filterUnits="userSpaceOnUse" color-interpolation-filters="sRGB">
<feFlood flood-opacity="0" result="BackgroundImageFix"/>
<feColorMatrix in="SourceAlpha" type="matrix" values="0 0 0 0 0 0 0 0 0 0 0 0 0 0 0 0 0 0 127 0" result="hardAlpha"/>
<feOffset dy="4"/>
<feGaussianBlur stdDeviation="2"/>
<feComposite in2="hardAlpha" operator="out"/>
<feColorMatrix type="matrix" values="0 0 0 0 0 0 0 0 0 0 0 0 0 0 0 0 0 0 0.25 0"/>
<feBlend mode="normal" in2="BackgroundImageFix" result="effect1_dropShadow_428_361"/>
<feBlend mode="normal" in="SourceGraphic" in2="effect1_dropShadow_428_361" result="shape"/>
</filter>
</defs>
</svg>
