<svg width="331" height="61" viewBox="0 0 331 61" fill="none" xmlns="http://www.w3.org/2000/svg">
<g filter="url(#filter0_d_427_5409)">
<rect width="331" height="61" rx="15" fill="white" shape-rendering="crispEdges"/>
<path d="M63.1113 30.5001C63.1113 24.1488 57.9626 19.0001 51.6113 19.0001C45.26 19.0001 40.1113 24.1488 40.1113 30.5001C40.1113 36.24 44.3167 40.9976 49.8145 41.8604V33.8243H46.8945V30.5001H49.8145V27.9665C49.8145 25.0843 51.5313 23.4922 54.1582 23.4922C55.4164 23.4922 56.7324 23.7169 56.7324 23.7169V26.5469H55.2823C53.8537 26.5469 53.4082 27.4334 53.4082 28.3428V30.5001H56.5977L56.0878 33.8243H53.4082V41.8604C58.9059 40.9976 63.1113 36.24 63.1113 30.5001Z" fill="#1877F2"/>
<path d="M88.5312 26.7756C88.4555 26.1032 88.143 25.5824 87.5938 25.2131C87.0445 24.839 86.3532 24.652 85.5199 24.652C84.9233 24.652 84.4072 24.7467 83.9716 24.9361C83.536 25.1207 83.1974 25.3764 82.956 25.7031C82.7192 26.0251 82.6009 26.392 82.6009 26.804C82.6009 27.1496 82.6813 27.4479 82.8423 27.6989C83.008 27.9498 83.2235 28.1605 83.4886 28.331C83.7585 28.4967 84.0473 28.6364 84.3551 28.75C84.6629 28.8589 84.9588 28.9489 85.2429 29.0199L86.6634 29.3892C87.1274 29.5028 87.6032 29.6567 88.0909 29.8509C88.5786 30.045 89.0308 30.3007 89.4474 30.6179C89.8641 30.9351 90.2003 31.3281 90.456 31.7969C90.7164 32.2656 90.8466 32.8267 90.8466 33.4801C90.8466 34.304 90.6335 35.0355 90.2074 35.6747C89.786 36.3139 89.1728 36.8182 88.3679 37.1875C87.5677 37.5568 86.5994 37.7415 85.4631 37.7415C84.3741 37.7415 83.4318 37.5687 82.6364 37.223C81.8409 36.8774 81.2183 36.3873 80.7685 35.7528C80.3187 35.1136 80.0701 34.3561 80.0227 33.4801H82.2244C82.267 34.0057 82.4375 34.4437 82.7358 34.794C83.0388 35.1397 83.4247 35.3977 83.8935 35.5682C84.367 35.7339 84.8854 35.8168 85.4489 35.8168C86.0691 35.8168 86.6207 35.7197 87.1037 35.5256C87.5914 35.3267 87.9749 35.0521 88.2543 34.7017C88.5336 34.3466 88.6733 33.9323 88.6733 33.4588C88.6733 33.0279 88.5502 32.6752 88.304 32.4006C88.0625 32.1259 87.7334 31.8987 87.3168 31.7188C86.9048 31.5388 86.4384 31.3802 85.9176 31.2429L84.1989 30.7741C83.0341 30.4569 82.1108 29.9905 81.429 29.375C80.7519 28.7595 80.4134 27.9451 80.4134 26.9318C80.4134 26.0937 80.6406 25.3622 81.0952 24.7372C81.5497 24.1122 82.1652 23.6269 82.9418 23.2812C83.7183 22.9309 84.5942 22.7557 85.5696 22.7557C86.5545 22.7557 87.4233 22.9285 88.1761 23.2741C88.9337 23.6198 89.5303 24.0956 89.9659 24.7017C90.4015 25.303 90.6288 25.9943 90.6477 26.7756H88.5312ZM93.2987 37.5V26.5909H95.4222V37.5H93.2987ZM94.3711 24.9077C94.0018 24.9077 93.6845 24.7846 93.4194 24.5384C93.159 24.2874 93.0288 23.9891 93.0288 23.6435C93.0288 23.2931 93.159 22.9948 93.4194 22.7486C93.6845 22.4976 94.0018 22.3722 94.3711 22.3722C94.7404 22.3722 95.0553 22.4976 95.3157 22.7486C95.5808 22.9948 95.7134 23.2931 95.7134 23.6435C95.7134 23.9891 95.5808 24.2874 95.3157 24.5384C95.0553 24.7846 94.7404 24.9077 94.3711 24.9077ZM102.853 41.8182C101.987 41.8182 101.241 41.7045 100.616 41.4773C99.9955 41.25 99.4889 40.9493 99.0959 40.5753C98.7029 40.2012 98.4093 39.7917 98.2152 39.3466L100.04 38.5938C100.168 38.8021 100.339 39.0223 100.552 39.2543C100.77 39.491 101.063 39.6922 101.433 39.858C101.807 40.0237 102.287 40.1065 102.874 40.1065C103.679 40.1065 104.344 39.91 104.87 39.517C105.396 39.1288 105.658 38.5085 105.658 37.6562V35.5114H105.523C105.396 35.7434 105.211 36.0014 104.969 36.2855C104.733 36.5696 104.406 36.8158 103.989 37.0241C103.573 37.2325 103.031 37.3366 102.363 37.3366C101.501 37.3366 100.725 37.1354 100.033 36.733C99.3468 36.3258 98.8023 35.7268 98.3999 34.9361C98.0021 34.1406 97.8033 33.1629 97.8033 32.0028C97.8033 30.8428 97.9998 29.8485 98.3928 29.0199C98.7905 28.1913 99.335 27.5568 100.026 27.1165C100.718 26.6714 101.501 26.4489 102.377 26.4489C103.054 26.4489 103.601 26.5625 104.018 26.7898C104.434 27.0123 104.759 27.2727 104.991 27.571C105.228 27.8693 105.41 28.1321 105.538 28.3594H105.694V26.5909H107.775V37.7415C107.775 38.679 107.557 39.4484 107.121 40.0497C106.686 40.651 106.096 41.0961 105.353 41.3849C104.614 41.6738 103.781 41.8182 102.853 41.8182ZM102.832 35.5753C103.442 35.5753 103.959 35.4332 104.38 35.1491C104.806 34.8603 105.128 34.4484 105.346 33.9134C105.568 33.3736 105.68 32.7273 105.68 31.9744C105.68 31.2405 105.571 30.5942 105.353 30.0355C105.135 29.4768 104.816 29.0412 104.394 28.7287C103.973 28.4115 103.452 28.2528 102.832 28.2528C102.192 28.2528 101.66 28.4186 101.234 28.75C100.808 29.0767 100.486 29.5218 100.268 30.0852C100.055 30.6487 99.9482 31.2784 99.9482 31.9744C99.9482 32.6894 100.057 33.3168 100.275 33.8565C100.493 34.3963 100.815 34.8177 101.241 35.1207C101.672 35.4238 102.202 35.5753 102.832 35.5753ZM112.746 31.0227V37.5H110.623V26.5909H112.661V28.3665H112.796C113.047 27.7888 113.44 27.3248 113.975 26.9744C114.515 26.6241 115.194 26.4489 116.013 26.4489C116.757 26.4489 117.408 26.6051 117.967 26.9176C118.525 27.2254 118.959 27.6847 119.266 28.2955C119.574 28.9062 119.728 29.6615 119.728 30.5611V37.5H117.604V30.8168C117.604 30.026 117.398 29.4081 116.987 28.9631C116.575 28.5133 116.009 28.2884 115.289 28.2884C114.797 28.2884 114.359 28.3949 113.975 28.608C113.596 28.821 113.296 29.1335 113.073 29.5455C112.855 29.9527 112.746 30.4451 112.746 31.0227ZM127.869 37.5V26.5909H129.993V37.5H127.869ZM128.941 24.9077C128.572 24.9077 128.255 24.7846 127.99 24.5384C127.729 24.2874 127.599 23.9891 127.599 23.6435C127.599 23.2931 127.729 22.9948 127.99 22.7486C128.255 22.4976 128.572 22.3722 128.941 22.3722C129.311 22.3722 129.626 22.4976 129.886 22.7486C130.151 22.9948 130.284 23.2931 130.284 23.6435C130.284 23.9891 130.151 24.2874 129.886 24.5384C129.626 24.7846 129.311 24.9077 128.941 24.9077ZM134.973 31.0227V37.5H132.849V26.5909H134.888V28.3665H135.023C135.274 27.7888 135.667 27.3248 136.202 26.9744C136.741 26.6241 137.421 26.4489 138.24 26.4489C138.983 26.4489 139.634 26.6051 140.193 26.9176C140.752 27.2254 141.185 27.6847 141.493 28.2955C141.801 28.9062 141.955 29.6615 141.955 30.5611V37.5H139.831V30.8168C139.831 30.026 139.625 29.4081 139.213 28.9631C138.801 28.5133 138.235 28.2884 137.516 28.2884C137.023 28.2884 136.585 28.3949 136.202 28.608C135.823 28.821 135.522 29.1335 135.3 29.5455C135.082 29.9527 134.973 30.4451 134.973 31.0227ZM152.461 37.5L149.25 26.5909H151.445L153.583 34.6023H153.689L155.834 26.5909H158.029L160.159 34.5668H160.266L162.39 26.5909H164.584L161.381 37.5H159.215L156.999 29.6236H156.836L154.62 37.5H152.461ZM166.599 37.5V26.5909H168.723V37.5H166.599ZM167.672 24.9077C167.303 24.9077 166.985 24.7846 166.72 24.5384C166.46 24.2874 166.33 23.9891 166.33 23.6435C166.33 23.2931 166.46 22.9948 166.72 22.7486C166.985 22.4976 167.303 22.3722 167.672 22.3722C168.041 22.3722 168.356 22.4976 168.616 22.7486C168.882 22.9948 169.014 23.2931 169.014 23.6435C169.014 23.9891 168.882 24.2874 168.616 24.5384C168.356 24.7846 168.041 24.9077 167.672 24.9077ZM176.672 26.5909V28.2955H170.713V26.5909H176.672ZM172.311 23.9773H174.435V34.2969C174.435 34.7088 174.497 35.0189 174.62 35.2273C174.743 35.4309 174.901 35.5705 175.096 35.6463C175.294 35.7173 175.51 35.7528 175.742 35.7528C175.912 35.7528 176.061 35.741 176.189 35.7173C176.317 35.6937 176.417 35.6747 176.488 35.6605L176.871 37.4148C176.748 37.4621 176.573 37.5095 176.346 37.5568C176.118 37.6089 175.834 37.6373 175.493 37.642C174.935 37.6515 174.414 37.5521 173.931 37.3438C173.448 37.1354 173.057 36.8134 172.759 36.3778C172.461 35.9422 172.311 35.3954 172.311 34.7372V23.9773ZM181.379 31.0227V37.5H179.256V22.9545H181.351V28.3665H181.486C181.741 27.7794 182.132 27.313 182.658 26.9673C183.183 26.6217 183.87 26.4489 184.717 26.4489C185.465 26.4489 186.119 26.6027 186.678 26.9105C187.241 27.2183 187.677 27.6776 187.984 28.2884C188.297 28.8944 188.453 29.652 188.453 30.5611V37.5H186.33V30.8168C186.33 30.0166 186.124 29.3963 185.712 28.956C185.3 28.5109 184.727 28.2884 183.993 28.2884C183.491 28.2884 183.041 28.3949 182.643 28.608C182.25 28.821 181.94 29.1335 181.713 29.5455C181.491 29.9527 181.379 30.4451 181.379 31.0227ZM196.75 37.5V22.9545H205.77V24.8438H198.945V29.2756H205.124V31.1577H198.945V37.5H196.75ZM211.434 37.7415C210.743 37.7415 210.118 37.6136 209.559 37.358C209.001 37.0975 208.558 36.7211 208.231 36.2287C207.909 35.7363 207.748 35.1326 207.748 34.4176C207.748 33.8021 207.867 33.2955 208.103 32.8977C208.34 32.5 208.66 32.1851 209.062 31.9531C209.465 31.7211 209.914 31.5459 210.412 31.4276C210.909 31.3092 211.415 31.2192 211.931 31.1577C212.585 31.0819 213.115 31.0204 213.522 30.973C213.93 30.9209 214.225 30.8381 214.41 30.7244C214.595 30.6108 214.687 30.4261 214.687 30.1705V30.1207C214.687 29.5005 214.512 29.0199 214.162 28.679C213.816 28.3381 213.3 28.1676 212.613 28.1676C211.898 28.1676 211.335 28.3262 210.923 28.6435C210.516 28.956 210.234 29.304 210.078 29.6875L208.082 29.233C208.319 28.5701 208.664 28.035 209.119 27.6278C209.578 27.2159 210.106 26.9176 210.703 26.733C211.299 26.5436 211.927 26.4489 212.585 26.4489C213.02 26.4489 213.482 26.5009 213.97 26.6051C214.462 26.7045 214.922 26.8892 215.348 27.1591C215.779 27.429 216.131 27.8149 216.406 28.3168C216.681 28.8139 216.818 29.4602 216.818 30.2557V37.5H214.744V36.0085H214.659C214.521 36.2831 214.315 36.553 214.041 36.8182C213.766 37.0833 213.413 37.3035 212.983 37.4787C212.552 37.6539 212.036 37.7415 211.434 37.7415ZM211.896 36.0369C212.483 36.0369 212.985 35.9209 213.402 35.6889C213.823 35.4569 214.143 35.1539 214.36 34.7798C214.583 34.401 214.694 33.9962 214.694 33.5653V32.1591C214.618 32.2348 214.472 32.3059 214.254 32.3722C214.041 32.4337 213.797 32.4882 213.522 32.5355C213.248 32.5781 212.98 32.6184 212.72 32.6562C212.459 32.6894 212.242 32.7178 212.066 32.7415C211.654 32.7936 211.278 32.8812 210.937 33.0043C210.601 33.1274 210.331 33.3049 210.127 33.5369C209.929 33.7642 209.829 34.0672 209.829 34.446C209.829 34.9716 210.023 35.3693 210.412 35.6392C210.8 35.9044 211.295 36.0369 211.896 36.0369ZM224.241 37.7202C223.186 37.7202 222.277 37.4811 221.514 37.0028C220.757 36.5199 220.174 35.8546 219.767 35.0071C219.36 34.1596 219.156 33.1889 219.156 32.0952C219.156 30.9872 219.365 30.0095 219.781 29.1619C220.198 28.3097 220.785 27.6444 221.543 27.1662C222.3 26.688 223.193 26.4489 224.22 26.4489C225.049 26.4489 225.787 26.6027 226.436 26.9105C227.085 27.2135 227.608 27.6397 228.006 28.1889C228.408 28.7382 228.647 29.3797 228.723 30.1136H226.656C226.543 29.6023 226.282 29.1619 225.875 28.7926C225.473 28.4233 224.933 28.2386 224.256 28.2386C223.664 28.2386 223.145 28.3949 222.7 28.7074C222.26 29.0152 221.917 29.4555 221.67 30.0284C221.424 30.5966 221.301 31.2689 221.301 32.0455C221.301 32.8409 221.422 33.5275 221.663 34.1051C221.905 34.6828 222.246 35.1302 222.686 35.4474C223.131 35.7647 223.654 35.9233 224.256 35.9233C224.658 35.9233 225.023 35.8499 225.349 35.7031C225.681 35.5516 225.958 35.3362 226.18 35.0568C226.408 34.7775 226.566 34.4413 226.656 34.0483H228.723C228.647 34.7538 228.418 35.3835 228.034 35.9375C227.651 36.4915 227.137 36.9271 226.493 37.2443C225.854 37.5616 225.103 37.7202 224.241 37.7202ZM235.696 37.7202C234.621 37.7202 233.695 37.4905 232.919 37.0312C232.147 36.5672 231.55 35.9162 231.129 35.0781C230.712 34.2353 230.504 33.2481 230.504 32.1165C230.504 30.9991 230.712 30.0142 231.129 29.1619C231.55 28.3097 232.137 27.6444 232.89 27.1662C233.648 26.688 234.533 26.4489 235.547 26.4489C236.162 26.4489 236.759 26.5507 237.336 26.7543C237.914 26.9579 238.432 27.2775 238.892 27.7131C239.351 28.1487 239.713 28.7145 239.978 29.4105C240.243 30.1018 240.376 30.9422 240.376 31.9318V32.6847H231.704V31.0938H238.295C238.295 30.535 238.181 30.0402 237.954 29.6094C237.727 29.1738 237.407 28.8305 236.995 28.5795C236.588 28.3286 236.11 28.2031 235.561 28.2031C234.964 28.2031 234.443 28.3499 233.998 28.6435C233.558 28.9323 233.217 29.3111 232.975 29.7798C232.739 30.2438 232.62 30.7481 232.62 31.2926V32.5355C232.62 33.2647 232.748 33.8849 233.004 34.3963C233.264 34.9077 233.627 35.2983 234.091 35.5682C234.555 35.8333 235.097 35.9659 235.717 35.9659C236.119 35.9659 236.486 35.9091 236.818 35.7955C237.149 35.6771 237.436 35.5019 237.677 35.2699C237.919 35.0379 238.103 34.7514 238.231 34.4105L240.241 34.7727C240.08 35.3646 239.791 35.883 239.375 36.3281C238.963 36.7685 238.444 37.1117 237.819 37.358C237.199 37.5994 236.491 37.7202 235.696 37.7202ZM242.903 37.5V22.9545H245.026V28.3594H245.154C245.277 28.1321 245.455 27.8693 245.687 27.571C245.919 27.2727 246.241 27.0123 246.653 26.7898C247.065 26.5625 247.609 26.4489 248.286 26.4489C249.167 26.4489 249.953 26.6714 250.644 27.1165C251.335 27.5616 251.878 28.2031 252.271 29.0412C252.668 29.8793 252.867 30.8878 252.867 32.0668C252.867 33.2457 252.671 34.2566 252.278 35.0994C251.885 35.9375 251.345 36.5838 250.658 37.0384C249.972 37.4882 249.188 37.7131 248.308 37.7131C247.645 37.7131 247.103 37.6018 246.681 37.3793C246.264 37.1567 245.938 36.8963 245.701 36.598C245.464 36.2997 245.282 36.0346 245.154 35.8026H244.977V37.5H242.903ZM244.984 32.0455C244.984 32.8125 245.095 33.4848 245.317 34.0625C245.54 34.6402 245.862 35.0923 246.283 35.419C246.705 35.741 247.221 35.902 247.832 35.902C248.466 35.902 248.996 35.7339 249.423 35.3977C249.849 35.0568 250.171 34.5952 250.388 34.0128C250.611 33.4304 250.722 32.7746 250.722 32.0455C250.722 31.3258 250.613 30.6795 250.396 30.1065C250.183 29.5336 249.861 29.0814 249.43 28.75C249.004 28.4186 248.471 28.2528 247.832 28.2528C247.216 28.2528 246.695 28.4115 246.269 28.7287C245.848 29.0459 245.528 29.4886 245.31 30.0568C245.093 30.625 244.984 31.2879 244.984 32.0455ZM259.847 37.7202C258.824 37.7202 257.932 37.4858 257.169 37.017C256.407 36.5483 255.815 35.8925 255.394 35.0497C254.972 34.2069 254.762 33.2221 254.762 32.0952C254.762 30.9635 254.972 29.974 255.394 29.1264C255.815 28.2789 256.407 27.6207 257.169 27.152C257.932 26.6832 258.824 26.4489 259.847 26.4489C260.87 26.4489 261.762 26.6832 262.525 27.152C263.287 27.6207 263.879 28.2789 264.3 29.1264C264.721 29.974 264.932 30.9635 264.932 32.0952C264.932 33.2221 264.721 34.2069 264.3 35.0497C263.879 35.8925 263.287 36.5483 262.525 37.017C261.762 37.4858 260.87 37.7202 259.847 37.7202ZM259.854 35.9375C260.517 35.9375 261.066 35.7623 261.502 35.4119C261.937 35.0616 262.259 34.5952 262.468 34.0128C262.681 33.4304 262.787 32.7888 262.787 32.0881C262.787 31.392 262.681 30.7528 262.468 30.1705C262.259 29.5833 261.937 29.1122 261.502 28.7571C261.066 28.402 260.517 28.2244 259.854 28.2244C259.186 28.2244 258.632 28.402 258.192 28.7571C257.757 29.1122 257.432 29.5833 257.219 30.1705C257.011 30.7528 256.907 31.392 256.907 32.0881C256.907 32.7888 257.011 33.4304 257.219 34.0128C257.432 34.5952 257.757 35.0616 258.192 35.4119C258.632 35.7623 259.186 35.9375 259.854 35.9375ZM271.898 37.7202C270.875 37.7202 269.982 37.4858 269.22 37.017C268.458 36.5483 267.866 35.8925 267.445 35.0497C267.023 34.2069 266.812 33.2221 266.812 32.0952C266.812 30.9635 267.023 29.974 267.445 29.1264C267.866 28.2789 268.458 27.6207 269.22 27.152C269.982 26.6832 270.875 26.4489 271.898 26.4489C272.92 26.4489 273.813 26.6832 274.575 27.152C275.338 27.6207 275.929 28.2789 276.351 29.1264C276.772 29.974 276.983 30.9635 276.983 32.0952C276.983 33.2221 276.772 34.2069 276.351 35.0497C275.929 35.8925 275.338 36.5483 274.575 37.017C273.813 37.4858 272.92 37.7202 271.898 37.7202ZM271.905 35.9375C272.568 35.9375 273.117 35.7623 273.553 35.4119C273.988 35.0616 274.31 34.5952 274.518 34.0128C274.732 33.4304 274.838 32.7888 274.838 32.0881C274.838 31.392 274.732 30.7528 274.518 30.1705C274.31 29.5833 273.988 29.1122 273.553 28.7571C273.117 28.402 272.568 28.2244 271.905 28.2244C271.237 28.2244 270.683 28.402 270.243 28.7571C269.807 29.1122 269.483 29.5833 269.27 30.1705C269.062 30.7528 268.957 31.392 268.957 32.0881C268.957 32.7888 269.062 33.4304 269.27 34.0128C269.483 34.5952 269.807 35.0616 270.243 35.4119C270.683 35.7623 271.237 35.9375 271.905 35.9375ZM281.306 33.7997L281.292 31.2074H281.662L286.008 26.5909H288.551L283.593 31.8466H283.26L281.306 33.7997ZM279.353 37.5V22.9545H281.477V37.5H279.353ZM286.243 37.5L282.336 32.3153L283.799 30.831L288.849 37.5H286.243Z" fill="#1D1C2B"/>
</g>
<defs>
<filter id="filter0_d_427_5409" x="-4" y="0" width="339" height="69" filterUnits="userSpaceOnUse" color-interpolation-filters="sRGB">
<feFlood flood-opacity="0" result="BackgroundImageFix"/>
<feColorMatrix in="SourceAlpha" type="matrix" values="0 0 0 0 0 0 0 0 0 0 0 0 0 0 0 0 0 0 127 0" result="hardAlpha"/>
<feOffset dy="4"/>
<feGaussianBlur stdDeviation="2"/>
<feComposite in2="hardAlpha" operator="out"/>
<feColorMatrix type="matrix" values="0 0 0 0 0 0 0 0 0 0 0 0 0 0 0 0 0 0 0.25 0"/>
<feBlend mode="normal" in2="BackgroundImageFix" result="effect1_dropShadow_427_5409"/>
<feBlend mode="normal" in="SourceGraphic" in2="effect1_dropShadow_427_5409" result="shape"/>
</filter>
</defs>
</svg>
