<svg width="331" height="61" viewBox="0 0 331 61" fill="none" xmlns="http://www.w3.org/2000/svg">
<g filter="url(#filter0_d_430_1279)">
<rect width="331" height="60.8604" rx="15" fill="white" shape-rendering="crispEdges"/>
<path d="M102.97 27.7062C102.894 27.0339 102.581 26.513 102.032 26.1437C101.483 25.7697 100.792 25.5827 99.9584 25.5827C99.3618 25.5827 98.8457 25.6773 98.4101 25.8667C97.9745 26.0514 97.6359 26.3071 97.3944 26.6338C97.1577 26.9558 97.0393 27.3227 97.0393 27.7346C97.0393 28.0803 97.1198 28.3786 97.2808 28.6295C97.4465 28.8805 97.662 29.0912 97.9271 29.2616C98.197 29.4273 98.4858 29.567 98.7936 29.6807C99.1014 29.7896 99.3973 29.8795 99.6814 29.9506L101.102 30.3199C101.566 30.4335 102.042 30.5874 102.529 30.7815C103.017 30.9756 103.469 31.2313 103.886 31.5486C104.303 31.8658 104.639 32.2588 104.894 32.7275C105.155 33.1963 105.285 33.7574 105.285 34.4108C105.285 35.2346 105.072 35.9662 104.646 36.6054C104.224 37.2446 103.611 37.7488 102.806 38.1182C102.006 38.4875 101.038 38.6721 99.9015 38.6721C98.8125 38.6721 97.8703 38.4993 97.0748 38.1537C96.2794 37.808 95.6568 37.318 95.2069 36.6835C94.7571 36.0443 94.5086 35.2867 94.4612 34.4108H96.6629C96.7055 34.9363 96.876 35.3743 97.1743 35.7247C97.4773 36.0703 97.8632 36.3284 98.3319 36.4988C98.8054 36.6646 99.3239 36.7474 99.8873 36.7474C100.508 36.7474 101.059 36.6504 101.542 36.4562C102.03 36.2574 102.413 35.9827 102.693 35.6324C102.972 35.2773 103.112 34.863 103.112 34.3895C103.112 33.9586 102.989 33.6059 102.742 33.3312C102.501 33.0566 102.172 32.8293 101.755 32.6494C101.343 32.4695 100.877 32.3109 100.356 32.1736L98.6373 31.7048C97.4726 31.3876 96.5493 30.9212 95.8675 30.3057C95.1904 29.6901 94.8518 28.8757 94.8518 27.8625C94.8518 27.0244 95.0791 26.2929 95.5336 25.6679C95.9882 25.0429 96.6037 24.5576 97.3802 24.2119C98.1568 23.8615 99.0327 23.6863 100.008 23.6863C100.993 23.6863 101.862 23.8592 102.615 24.2048C103.372 24.5505 103.969 25.0263 104.404 25.6324C104.84 26.2337 105.067 26.925 105.086 27.7062H102.97ZM107.737 38.4307V27.5216H109.861V38.4307H107.737ZM108.81 25.8383C108.44 25.8383 108.123 25.7152 107.858 25.469C107.597 25.2181 107.467 24.9198 107.467 24.5741C107.467 24.2238 107.597 23.9255 107.858 23.6792C108.123 23.4283 108.44 23.3028 108.81 23.3028C109.179 23.3028 109.494 23.4283 109.754 23.6792C110.019 23.9255 110.152 24.2238 110.152 24.5741C110.152 24.9198 110.019 25.2181 109.754 25.469C109.494 25.7152 109.179 25.8383 108.81 25.8383ZM117.291 42.7488C116.425 42.7488 115.679 42.6352 115.054 42.4079C114.434 42.1807 113.927 41.88 113.534 41.5059C113.141 41.1319 112.848 40.7223 112.654 40.2773L114.479 39.5244C114.607 39.7327 114.777 39.9529 114.99 40.1849C115.208 40.4217 115.502 40.6229 115.871 40.7886C116.245 40.9543 116.726 41.0372 117.313 41.0372C118.118 41.0372 118.783 40.8407 119.309 40.4477C119.834 40.0595 120.097 39.4392 120.097 38.5869V36.442H119.962C119.834 36.674 119.649 36.9321 119.408 37.2162C119.171 37.5003 118.844 37.7465 118.428 37.9548C118.011 38.1631 117.469 38.2673 116.801 38.2673C115.94 38.2673 115.163 38.0661 114.472 37.6636C113.785 37.2564 113.241 36.6575 112.838 35.8667C112.441 35.0713 112.242 34.0935 112.242 32.9335C112.242 31.7735 112.438 30.7791 112.831 29.9506C113.229 29.122 113.773 28.4875 114.465 28.0471C115.156 27.6021 115.94 27.3795 116.816 27.3795C117.493 27.3795 118.04 27.4932 118.456 27.7204C118.873 27.943 119.197 28.2034 119.429 28.5017C119.666 28.8 119.848 29.0628 119.976 29.29H120.132V27.5216H122.213V38.6721C122.213 39.6096 121.996 40.3791 121.56 40.9804C121.124 41.5817 120.535 42.0268 119.791 42.3156C119.053 42.6044 118.219 42.7488 117.291 42.7488ZM117.27 36.5059C117.881 36.5059 118.397 36.3639 118.818 36.0798C119.245 35.791 119.567 35.3791 119.784 34.844C120.007 34.3042 120.118 33.6579 120.118 32.9051C120.118 32.1712 120.009 31.5249 119.791 30.9662C119.574 30.4075 119.254 29.9719 118.833 29.6594C118.411 29.3421 117.89 29.1835 117.27 29.1835C116.631 29.1835 116.098 29.3492 115.672 29.6807C115.246 30.0074 114.924 30.4524 114.706 31.0159C114.493 31.5793 114.387 32.2091 114.387 32.9051C114.387 33.6201 114.496 34.2474 114.713 34.7872C114.931 35.327 115.253 35.7484 115.679 36.0514C116.11 36.3544 116.64 36.5059 117.27 36.5059ZM127.185 31.9534V38.4307H125.061V27.5216H127.1V29.2971H127.235C127.486 28.7195 127.879 28.2555 128.414 27.9051C128.953 27.5547 129.633 27.3795 130.452 27.3795C131.195 27.3795 131.846 27.5358 132.405 27.8483C132.964 28.156 133.397 28.6153 133.705 29.2261C134.013 29.8369 134.166 30.5921 134.166 31.4917V38.4307H132.043V31.7474C132.043 30.9567 131.837 30.3388 131.425 29.8937C131.013 29.4439 130.447 29.219 129.728 29.219C129.235 29.219 128.797 29.3256 128.414 29.5386C128.035 29.7517 127.734 30.0642 127.512 30.4761C127.294 30.8833 127.185 31.3757 127.185 31.9534ZM142.307 38.4307V27.5216H144.431V38.4307H142.307ZM143.38 25.8383C143.011 25.8383 142.693 25.7152 142.428 25.469C142.168 25.2181 142.038 24.9198 142.038 24.5741C142.038 24.2238 142.168 23.9255 142.428 23.6792C142.693 23.4283 143.011 23.3028 143.38 23.3028C143.749 23.3028 144.064 23.4283 144.324 23.6792C144.59 23.9255 144.722 24.2238 144.722 24.5741C144.722 24.9198 144.59 25.2181 144.324 25.469C144.064 25.7152 143.749 25.8383 143.38 25.8383ZM149.411 31.9534V38.4307H147.288V27.5216H149.326V29.2971H149.461C149.712 28.7195 150.105 28.2555 150.64 27.9051C151.18 27.5547 151.859 27.3795 152.679 27.3795C153.422 27.3795 154.073 27.5358 154.632 27.8483C155.19 28.156 155.624 28.6153 155.931 29.2261C156.239 29.8369 156.393 30.5921 156.393 31.4917V38.4307H154.269V31.7474C154.269 30.9567 154.063 30.3388 153.652 29.8937C153.24 29.4439 152.674 29.219 151.954 29.219C151.462 29.219 151.024 29.3256 150.64 29.5386C150.261 29.7517 149.961 30.0642 149.738 30.4761C149.52 30.8833 149.411 31.3757 149.411 31.9534ZM166.899 38.4307L163.689 27.5216H165.883L168.021 35.5329H168.128L170.273 27.5216H172.467L174.598 35.4974H174.704L176.828 27.5216H179.023L175.82 38.4307H173.653L171.437 30.5542H171.274L169.058 38.4307H166.899ZM181.038 38.4307V27.5216H183.161V38.4307H181.038ZM182.11 25.8383C181.741 25.8383 181.424 25.7152 181.159 25.469C180.898 25.2181 180.768 24.9198 180.768 24.5741C180.768 24.2238 180.898 23.9255 181.159 23.6792C181.424 23.4283 181.741 23.3028 182.11 23.3028C182.48 23.3028 182.795 23.4283 183.055 23.6792C183.32 23.9255 183.453 24.2238 183.453 24.5741C183.453 24.9198 183.32 25.2181 183.055 25.469C182.795 25.7152 182.48 25.8383 182.11 25.8383ZM191.111 27.5216V29.2261H185.152V27.5216H191.111ZM186.75 24.9079H188.873V35.2275C188.873 35.6395 188.935 35.9496 189.058 36.1579C189.181 36.3615 189.34 36.5012 189.534 36.577C189.733 36.648 189.948 36.6835 190.18 36.6835C190.351 36.6835 190.5 36.6717 190.628 36.648C190.756 36.6243 190.855 36.6054 190.926 36.5912L191.31 38.3454C191.186 38.3928 191.011 38.4401 190.784 38.4875C190.557 38.5396 190.273 38.568 189.932 38.5727C189.373 38.5822 188.852 38.4827 188.369 38.2744C187.886 38.0661 187.496 37.7441 187.197 37.3085C186.899 36.8729 186.75 36.326 186.75 35.6679V24.9079ZM195.818 31.9534V38.4307H193.694V23.8852H195.789V29.2971H195.924C196.18 28.71 196.571 28.2436 197.096 27.898C197.622 27.5523 198.308 27.3795 199.156 27.3795C199.904 27.3795 200.557 27.5334 201.116 27.8412C201.679 28.1489 202.115 28.6082 202.423 29.219C202.735 29.8251 202.892 30.5827 202.892 31.4917V38.4307H200.768V31.7474C200.768 30.9472 200.562 30.327 200.15 29.8866C199.738 29.4416 199.165 29.219 198.431 29.219C197.929 29.219 197.48 29.3256 197.082 29.5386C196.689 29.7517 196.379 30.0642 196.152 30.4761C195.929 30.8833 195.818 31.3757 195.818 31.9534ZM221.033 28.4804C220.895 28.0495 220.711 27.6636 220.479 27.3227C220.251 26.9771 219.979 26.6835 219.662 26.442C219.345 26.1958 218.982 26.0088 218.575 25.8809C218.173 25.7531 217.73 25.6892 217.247 25.6892C216.428 25.6892 215.689 25.8999 215.031 26.3213C214.373 26.7427 213.852 27.3606 213.469 28.175C213.09 28.9846 212.9 29.9766 212.9 31.1508C212.9 32.3298 213.092 33.3265 213.476 34.1409C213.859 34.9553 214.385 35.5732 215.052 35.9946C215.72 36.416 216.48 36.6267 217.332 36.6267C218.123 36.6267 218.812 36.4657 219.399 36.1437C219.991 35.8218 220.448 35.3672 220.77 34.7801C221.097 34.1882 221.26 33.4922 221.26 32.692L221.828 32.7986H217.666V30.9875H223.383V32.6423C223.383 33.8639 223.123 34.9245 222.602 35.8241C222.086 36.719 221.371 37.4103 220.457 37.898C219.548 38.3857 218.507 38.6295 217.332 38.6295C216.016 38.6295 214.861 38.3265 213.866 37.7204C212.877 37.1144 212.105 36.255 211.551 35.1423C210.997 34.0249 210.72 32.6991 210.72 31.165C210.72 30.005 210.881 28.9633 211.203 28.04C211.525 27.1167 211.977 26.3331 212.56 25.6892C213.147 25.0405 213.836 24.5457 214.626 24.2048C215.422 23.8592 216.291 23.6863 217.233 23.6863C218.019 23.6863 218.75 23.8023 219.427 24.0344C220.109 24.2664 220.715 24.5954 221.246 25.0216C221.781 25.4477 222.223 25.9543 222.574 26.5415C222.924 27.1238 223.161 27.7702 223.284 28.4804H221.033ZM226.682 38.4307V27.5216H228.806V38.4307H226.682ZM227.755 25.8383C227.386 25.8383 227.068 25.7152 226.803 25.469C226.543 25.2181 226.413 24.9198 226.413 24.5741C226.413 24.2238 226.543 23.9255 226.803 23.6792C227.068 23.4283 227.386 23.3028 227.755 23.3028C228.124 23.3028 228.439 23.4283 228.699 23.6792C228.965 23.9255 229.097 24.2238 229.097 24.5741C229.097 24.9198 228.965 25.2181 228.699 25.469C228.439 25.7152 228.124 25.8383 227.755 25.8383ZM236.755 27.5216V29.2261H230.796V27.5216H236.755ZM232.394 24.9079H234.518V35.2275C234.518 35.6395 234.58 35.9496 234.703 36.1579C234.826 36.3615 234.984 36.5012 235.179 36.577C235.377 36.648 235.593 36.6835 235.825 36.6835C235.995 36.6835 236.144 36.6717 236.272 36.648C236.4 36.6243 236.5 36.6054 236.571 36.5912L236.954 38.3454C236.831 38.3928 236.656 38.4401 236.429 38.4875C236.201 38.5396 235.917 38.568 235.576 38.5727C235.018 38.5822 234.497 38.4827 234.014 38.2744C233.531 38.0661 233.14 37.7441 232.842 37.3085C232.544 36.8729 232.394 36.326 232.394 35.6679V24.9079ZM241.462 31.9534V38.4307H239.339V23.8852H241.434V29.2971H241.569C241.824 28.71 242.215 28.2436 242.741 27.898C243.266 27.5523 243.953 27.3795 244.8 27.3795C245.548 27.3795 246.202 27.5334 246.761 27.8412C247.324 28.1489 247.76 28.6082 248.067 29.219C248.38 29.8251 248.536 30.5827 248.536 31.4917V38.4307H246.413V31.7474C246.413 30.9472 246.207 30.327 245.795 29.8866C245.383 29.4416 244.81 29.219 244.076 29.219C243.574 29.219 243.124 29.3256 242.726 29.5386C242.333 29.7517 242.023 30.0642 241.796 30.4761C241.574 30.8833 241.462 31.3757 241.462 31.9534ZM258.28 33.9065V27.5216H260.411V38.4307H258.323V36.5415H258.209C257.958 37.1238 257.556 37.6092 257.002 37.9974C256.453 38.3809 255.769 38.5727 254.949 38.5727C254.249 38.5727 253.628 38.4188 253.089 38.1111C252.554 37.7986 252.132 37.3369 251.824 36.7261C251.521 36.1153 251.37 35.3601 251.37 34.4605V27.5216H253.494V34.2048C253.494 34.9482 253.699 35.54 254.111 35.9804C254.523 36.4207 255.058 36.6409 255.717 36.6409C256.114 36.6409 256.51 36.5415 256.903 36.3426C257.3 36.1437 257.629 35.8431 257.89 35.4406C258.155 35.0381 258.285 34.5268 258.28 33.9065ZM263.435 38.4307V23.8852H265.559V29.29H265.686C265.809 29.0628 265.987 28.8 266.219 28.5017C266.451 28.2034 266.773 27.943 267.185 27.7204C267.597 27.4932 268.141 27.3795 268.818 27.3795C269.699 27.3795 270.485 27.6021 271.176 28.0471C271.868 28.4922 272.41 29.1338 272.803 29.9719C273.201 30.8099 273.399 31.8184 273.399 32.9974C273.399 34.1764 273.203 35.1873 272.81 36.0301C272.417 36.8682 271.877 37.5145 271.191 37.969C270.504 38.4188 269.72 38.6437 268.84 38.6437C268.177 38.6437 267.635 38.5325 267.213 38.3099C266.797 38.0874 266.47 37.827 266.233 37.5287C265.996 37.2304 265.814 36.9652 265.686 36.7332H265.509V38.4307H263.435ZM265.516 32.9761C265.516 33.7432 265.627 34.4155 265.85 34.9932C266.072 35.5708 266.394 36.023 266.816 36.3497C267.237 36.6717 267.753 36.8327 268.364 36.8327C268.998 36.8327 269.529 36.6646 269.955 36.3284C270.381 35.9875 270.703 35.5258 270.921 34.9434C271.143 34.3611 271.255 33.7053 271.255 32.9761C271.255 32.2564 271.146 31.6101 270.928 31.0372C270.715 30.4643 270.393 30.0121 269.962 29.6807C269.536 29.3492 269.003 29.1835 268.364 29.1835C267.748 29.1835 267.228 29.3421 266.801 29.6594C266.38 29.9766 266.06 30.4193 265.843 30.9875C265.625 31.5557 265.516 32.2185 265.516 32.9761Z" fill="#1D1C2B"/>
<path d="M65.7195 19C59.2478 19 54 24.2469 54 30.7195C54 35.8976 57.358 40.2905 62.0146 41.8402C62.6002 41.9487 62.8153 41.586 62.8153 41.2764C62.8153 40.997 62.8044 40.0737 62.7994 39.0945C59.5389 39.8034 58.851 37.7117 58.851 37.7117C58.3179 36.3571 57.5497 35.997 57.5497 35.997C56.4865 35.2696 57.6299 35.2844 57.6299 35.2844C58.8067 35.3672 59.4264 36.4922 59.4264 36.4922C60.4717 38.2839 62.168 37.7658 62.8368 37.4665C62.942 36.7089 63.2457 36.192 63.5809 35.8993C60.9779 35.6029 58.2414 34.598 58.2414 30.1075C58.2414 28.828 58.6992 27.7825 59.449 26.9618C59.3273 26.6666 58.9261 25.4746 59.5625 23.8603C59.5625 23.8603 60.5466 23.5453 62.7862 25.0617C63.7209 24.8019 64.7235 24.6718 65.7195 24.6673C66.7155 24.6718 67.7188 24.8019 68.6554 25.0617C70.8924 23.5453 71.8751 23.8603 71.8751 23.8603C72.513 25.4746 72.1117 26.6666 71.99 26.9618C72.7414 27.7825 73.1961 28.8279 73.1961 30.1075C73.1961 34.6087 70.4545 35.5999 67.8449 35.89C68.2652 36.2537 68.6397 36.9669 68.6397 38.0603C68.6397 39.6283 68.6261 40.8904 68.6261 41.2764C68.6261 41.5883 68.8371 41.9537 69.4312 41.8387C74.0852 40.2872 77.439 35.8959 77.439 30.7195C77.439 24.2469 72.1918 19 65.7195 19Z" fill="#24292F"/>
<path d="M58.3891 35.6938C58.3634 35.752 58.2716 35.7695 58.1883 35.7296C58.1032 35.6914 58.0554 35.612 58.083 35.5535C58.1083 35.4936 58.2 35.4768 58.2849 35.5171C58.3701 35.5552 58.4186 35.6354 58.3891 35.6938M58.9656 36.2082C58.9097 36.26 58.8004 36.236 58.7262 36.1541C58.6496 36.0724 58.6352 35.9632 58.6919 35.9105C58.7496 35.8587 58.8556 35.8829 58.9324 35.9647C59.009 36.0474 59.0239 36.1559 58.9655 36.2083M59.3611 36.8663C59.2892 36.9162 59.1717 36.8694 59.0992 36.7652C59.0274 36.6611 59.0274 36.5361 59.1008 36.486C59.1736 36.4359 59.2892 36.4809 59.3627 36.5843C59.4344 36.6903 59.4344 36.8153 59.361 36.8664M60.0298 37.6286C59.9656 37.6993 59.8288 37.6804 59.7286 37.5837C59.6263 37.4892 59.5977 37.3551 59.6621 37.2842C59.7271 37.2133 59.8647 37.2332 59.9656 37.3291C60.0673 37.4234 60.0984 37.5585 60.0299 37.6286M60.8942 37.8859C60.866 37.9776 60.7342 38.0194 60.6015 37.9804C60.4689 37.9402 60.3822 37.8327 60.4089 37.74C60.4365 37.6476 60.5688 37.6041 60.7026 37.6458C60.8349 37.6858 60.9219 37.7925 60.8943 37.8859M61.8781 37.995C61.8814 38.0917 61.7688 38.1719 61.6294 38.1736C61.4893 38.1766 61.3759 38.0984 61.3745 38.0034C61.3745 37.9058 61.4845 37.8264 61.6246 37.8241C61.7639 37.8213 61.8781 37.899 61.8781 37.995M62.8444 37.958C62.8612 38.0523 62.7643 38.1492 62.626 38.1749C62.4899 38.1997 62.364 38.1415 62.3466 38.048C62.3297 37.9514 62.4284 37.8546 62.5642 37.8295C62.7028 37.8054 62.8268 37.8621 62.8444 37.958" fill="#24292F"/>
</g>
<defs>
<filter id="filter0_d_430_1279" x="-4" y="0" width="339" height="68.8604" filterUnits="userSpaceOnUse" color-interpolation-filters="sRGB">
<feFlood flood-opacity="0" result="BackgroundImageFix"/>
<feColorMatrix in="SourceAlpha" type="matrix" values="0 0 0 0 0 0 0 0 0 0 0 0 0 0 0 0 0 0 127 0" result="hardAlpha"/>
<feOffset dy="4"/>
<feGaussianBlur stdDeviation="2"/>
<feComposite in2="hardAlpha" operator="out"/>
<feColorMatrix type="matrix" values="0 0 0 0 0 0 0 0 0 0 0 0 0 0 0 0 0 0 0.25 0"/>
<feBlend mode="normal" in2="BackgroundImageFix" result="effect1_dropShadow_430_1279"/>
<feBlend mode="normal" in="SourceGraphic" in2="effect1_dropShadow_430_1279" result="shape"/>
</filter>
</defs>
</svg>
