<svg width="331" height="61" viewBox="0 0 331 61" fill="none" xmlns="http://www.w3.org/2000/svg">
<g filter="url(#filter0_d_427_5003)">
<rect width="331" height="61" rx="15" fill="white" shape-rendering="crispEdges"/>
<path fill-rule="evenodd" clip-rule="evenodd" d="M74.54 30.7615C74.54 29.946 74.4668 29.1619 74.3309 28.4092H63.5V32.8576H69.6891C69.4225 34.2951 68.6123 35.513 67.3943 36.3285V39.214H71.1109C73.2855 37.2119 74.54 34.2637 74.54 30.7615Z" fill="#4285F4"/>
<path fill-rule="evenodd" clip-rule="evenodd" d="M63.4995 41.9996C66.6045 41.9996 69.2077 40.9698 71.1104 39.2134L67.3938 36.328C66.364 37.018 65.0467 37.4257 63.4995 37.4257C60.5042 37.4257 57.969 35.4028 57.0647 32.6846H53.2227V35.6641C55.1149 39.4225 59.004 41.9996 63.4995 41.9996Z" fill="#34A853"/>
<path fill-rule="evenodd" clip-rule="evenodd" d="M57.0652 32.6855C56.8352 31.9955 56.7045 31.2584 56.7045 30.5005C56.7045 29.7425 56.8352 29.0055 57.0652 28.3155V25.3359H53.2232C52.4443 26.8884 52 28.6448 52 30.5005C52 32.3562 52.4443 34.1125 53.2232 35.665L57.0652 32.6855Z" fill="#FBBC05"/>
<path fill-rule="evenodd" clip-rule="evenodd" d="M63.4995 23.5739C65.1879 23.5739 66.7038 24.1541 67.8956 25.2936L71.194 21.9952C69.2024 20.1395 66.5992 19 63.4995 19C59.004 19 55.1149 21.577 53.2227 25.3355L57.0647 28.315C57.969 25.5968 60.5042 23.5739 63.4995 23.5739Z" fill="#EA4335"/>
<path d="M100.531 26.7756C100.455 26.1032 100.143 25.5824 99.5938 25.2131C99.0445 24.839 98.3532 24.652 97.5199 24.652C96.9233 24.652 96.4072 24.7467 95.9716 24.9361C95.536 25.1207 95.1974 25.3764 94.956 25.7031C94.7192 26.0251 94.6009 26.392 94.6009 26.804C94.6009 27.1496 94.6813 27.4479 94.8423 27.6989C95.008 27.9498 95.2235 28.1605 95.4886 28.331C95.7585 28.4967 96.0473 28.6364 96.3551 28.75C96.6629 28.8589 96.9588 28.9489 97.2429 29.0199L98.6634 29.3892C99.1274 29.5028 99.6032 29.6567 100.091 29.8509C100.579 30.045 101.031 30.3007 101.447 30.6179C101.864 30.9351 102.2 31.3281 102.456 31.7969C102.716 32.2656 102.847 32.8267 102.847 33.4801C102.847 34.304 102.634 35.0355 102.207 35.6747C101.786 36.3139 101.173 36.8182 100.368 37.1875C99.5677 37.5568 98.5994 37.7415 97.4631 37.7415C96.3741 37.7415 95.4318 37.5687 94.6364 37.223C93.8409 36.8774 93.2183 36.3873 92.7685 35.7528C92.3187 35.1136 92.0701 34.3561 92.0227 33.4801H94.2244C94.267 34.0057 94.4375 34.4437 94.7358 34.794C95.0388 35.1397 95.4247 35.3977 95.8935 35.5682C96.367 35.7339 96.8854 35.8168 97.4489 35.8168C98.0691 35.8168 98.6207 35.7197 99.1037 35.5256C99.5914 35.3267 99.9749 35.0521 100.254 34.7017C100.534 34.3466 100.673 33.9323 100.673 33.4588C100.673 33.0279 100.55 32.6752 100.304 32.4006C100.063 32.1259 99.7334 31.8987 99.3168 31.7188C98.9048 31.5388 98.4384 31.3802 97.9176 31.2429L96.1989 30.7741C95.0341 30.4569 94.1108 29.9905 93.429 29.375C92.7519 28.7595 92.4134 27.9451 92.4134 26.9318C92.4134 26.0937 92.6406 25.3622 93.0952 24.7372C93.5497 24.1122 94.1652 23.6269 94.9418 23.2812C95.7183 22.9309 96.5942 22.7557 97.5696 22.7557C98.5545 22.7557 99.4233 22.9285 100.176 23.2741C100.934 23.6198 101.53 24.0956 101.966 24.7017C102.402 25.303 102.629 25.9943 102.648 26.7756H100.531ZM105.299 37.5V26.5909H107.422V37.5H105.299ZM106.371 24.9077C106.002 24.9077 105.685 24.7846 105.419 24.5384C105.159 24.2874 105.029 23.9891 105.029 23.6435C105.029 23.2931 105.159 22.9948 105.419 22.7486C105.685 22.4976 106.002 22.3722 106.371 22.3722C106.74 22.3722 107.055 22.4976 107.316 22.7486C107.581 22.9948 107.713 23.2931 107.713 23.6435C107.713 23.9891 107.581 24.2874 107.316 24.5384C107.055 24.7846 106.74 24.9077 106.371 24.9077ZM114.853 41.8182C113.987 41.8182 113.241 41.7045 112.616 41.4773C111.996 41.25 111.489 40.9493 111.096 40.5753C110.703 40.2012 110.409 39.7917 110.215 39.3466L112.04 38.5938C112.168 38.8021 112.339 39.0223 112.552 39.2543C112.77 39.491 113.063 39.6922 113.433 39.858C113.807 40.0237 114.287 40.1065 114.874 40.1065C115.679 40.1065 116.344 39.91 116.87 39.517C117.396 39.1288 117.658 38.5085 117.658 37.6562V35.5114H117.523C117.396 35.7434 117.211 36.0014 116.969 36.2855C116.733 36.5696 116.406 36.8158 115.989 37.0241C115.573 37.2325 115.031 37.3366 114.363 37.3366C113.501 37.3366 112.725 37.1354 112.033 36.733C111.347 36.3258 110.802 35.7268 110.4 34.9361C110.002 34.1406 109.803 33.1629 109.803 32.0028C109.803 30.8428 110 29.8485 110.393 29.0199C110.79 28.1913 111.335 27.5568 112.026 27.1165C112.718 26.6714 113.501 26.4489 114.377 26.4489C115.054 26.4489 115.601 26.5625 116.018 26.7898C116.434 27.0123 116.759 27.2727 116.991 27.571C117.228 27.8693 117.41 28.1321 117.538 28.3594H117.694V26.5909H119.775V37.7415C119.775 38.679 119.557 39.4484 119.121 40.0497C118.686 40.651 118.096 41.0961 117.353 41.3849C116.614 41.6738 115.781 41.8182 114.853 41.8182ZM114.832 35.5753C115.442 35.5753 115.959 35.4332 116.38 35.1491C116.806 34.8603 117.128 34.4484 117.346 33.9134C117.568 33.3736 117.68 32.7273 117.68 31.9744C117.68 31.2405 117.571 30.5942 117.353 30.0355C117.135 29.4768 116.816 29.0412 116.394 28.7287C115.973 28.4115 115.452 28.2528 114.832 28.2528C114.192 28.2528 113.66 28.4186 113.234 28.75C112.808 29.0767 112.486 29.5218 112.268 30.0852C112.055 30.6487 111.948 31.2784 111.948 31.9744C111.948 32.6894 112.057 33.3168 112.275 33.8565C112.493 34.3963 112.815 34.8177 113.241 35.1207C113.672 35.4238 114.202 35.5753 114.832 35.5753ZM124.746 31.0227V37.5H122.623V26.5909H124.661V28.3665H124.796C125.047 27.7888 125.44 27.3248 125.975 26.9744C126.515 26.6241 127.194 26.4489 128.013 26.4489C128.757 26.4489 129.408 26.6051 129.967 26.9176C130.525 27.2254 130.959 27.6847 131.266 28.2955C131.574 28.9062 131.728 29.6615 131.728 30.5611V37.5H129.604V30.8168C129.604 30.026 129.398 29.4081 128.987 28.9631C128.575 28.5133 128.009 28.2884 127.289 28.2884C126.797 28.2884 126.359 28.3949 125.975 28.608C125.596 28.821 125.296 29.1335 125.073 29.5455C124.855 29.9527 124.746 30.4451 124.746 31.0227ZM139.869 37.5V26.5909H141.993V37.5H139.869ZM140.941 24.9077C140.572 24.9077 140.255 24.7846 139.99 24.5384C139.729 24.2874 139.599 23.9891 139.599 23.6435C139.599 23.2931 139.729 22.9948 139.99 22.7486C140.255 22.4976 140.572 22.3722 140.941 22.3722C141.311 22.3722 141.626 22.4976 141.886 22.7486C142.151 22.9948 142.284 23.2931 142.284 23.6435C142.284 23.9891 142.151 24.2874 141.886 24.5384C141.626 24.7846 141.311 24.9077 140.941 24.9077ZM146.973 31.0227V37.5H144.849V26.5909H146.888V28.3665H147.023C147.274 27.7888 147.667 27.3248 148.202 26.9744C148.741 26.6241 149.421 26.4489 150.24 26.4489C150.983 26.4489 151.634 26.6051 152.193 26.9176C152.752 27.2254 153.185 27.6847 153.493 28.2955C153.801 28.9062 153.955 29.6615 153.955 30.5611V37.5H151.831V30.8168C151.831 30.026 151.625 29.4081 151.213 28.9631C150.801 28.5133 150.235 28.2884 149.516 28.2884C149.023 28.2884 148.585 28.3949 148.202 28.608C147.823 28.821 147.522 29.1335 147.3 29.5455C147.082 29.9527 146.973 30.4451 146.973 31.0227ZM164.461 37.5L161.25 26.5909H163.445L165.583 34.6023H165.689L167.834 26.5909H170.029L172.159 34.5668H172.266L174.39 26.5909H176.584L173.381 37.5H171.215L168.999 29.6236H168.836L166.62 37.5H164.461ZM178.599 37.5V26.5909H180.723V37.5H178.599ZM179.672 24.9077C179.303 24.9077 178.985 24.7846 178.72 24.5384C178.46 24.2874 178.33 23.9891 178.33 23.6435C178.33 23.2931 178.46 22.9948 178.72 22.7486C178.985 22.4976 179.303 22.3722 179.672 22.3722C180.041 22.3722 180.356 22.4976 180.616 22.7486C180.882 22.9948 181.014 23.2931 181.014 23.6435C181.014 23.9891 180.882 24.2874 180.616 24.5384C180.356 24.7846 180.041 24.9077 179.672 24.9077ZM188.672 26.5909V28.2955H182.713V26.5909H188.672ZM184.311 23.9773H186.435V34.2969C186.435 34.7088 186.497 35.0189 186.62 35.2273C186.743 35.4309 186.901 35.5705 187.096 35.6463C187.294 35.7173 187.51 35.7528 187.742 35.7528C187.912 35.7528 188.061 35.741 188.189 35.7173C188.317 35.6937 188.417 35.6747 188.488 35.6605L188.871 37.4148C188.748 37.4621 188.573 37.5095 188.346 37.5568C188.118 37.6089 187.834 37.6373 187.493 37.642C186.935 37.6515 186.414 37.5521 185.931 37.3438C185.448 37.1354 185.057 36.8134 184.759 36.3778C184.461 35.9422 184.311 35.3954 184.311 34.7372V23.9773ZM193.379 31.0227V37.5H191.256V22.9545H193.351V28.3665H193.486C193.741 27.7794 194.132 27.313 194.658 26.9673C195.183 26.6217 195.87 26.4489 196.717 26.4489C197.465 26.4489 198.119 26.6027 198.678 26.9105C199.241 27.2183 199.677 27.6776 199.984 28.2884C200.297 28.8944 200.453 29.652 200.453 30.5611V37.5H198.33V30.8168C198.33 30.0166 198.124 29.3963 197.712 28.956C197.3 28.5109 196.727 28.2884 195.993 28.2884C195.491 28.2884 195.041 28.3949 194.643 28.608C194.25 28.821 193.94 29.1335 193.713 29.5455C193.491 29.9527 193.379 30.4451 193.379 31.0227ZM218.594 27.5497C218.457 27.1188 218.272 26.733 218.04 26.392C217.813 26.0464 217.541 25.7528 217.223 25.5114C216.906 25.2652 216.544 25.0781 216.137 24.9503C215.734 24.8224 215.292 24.7585 214.809 24.7585C213.989 24.7585 213.251 24.9692 212.593 25.3906C211.935 25.812 211.414 26.4299 211.03 27.2443C210.651 28.054 210.462 29.0459 210.462 30.2202C210.462 31.3991 210.654 32.3958 211.037 33.2102C211.421 34.0246 211.946 34.6425 212.614 35.0639C213.282 35.4853 214.042 35.696 214.894 35.696C215.685 35.696 216.373 35.535 216.961 35.2131C217.552 34.8911 218.009 34.4366 218.331 33.8494C218.658 33.2576 218.821 32.5616 218.821 31.7614L219.39 31.8679H215.228V30.0568H220.945V31.7116C220.945 32.9332 220.685 33.9938 220.164 34.8935C219.648 35.7884 218.933 36.4796 218.019 36.9673C217.11 37.455 216.068 37.6989 214.894 37.6989C213.578 37.6989 212.422 37.3958 211.428 36.7898C210.438 36.1837 209.667 35.3243 209.113 34.2116C208.559 33.0942 208.282 31.7685 208.282 30.2344C208.282 29.0743 208.443 28.0327 208.765 27.1094C209.087 26.1861 209.539 25.4025 210.121 24.7585C210.708 24.1098 211.397 23.6151 212.188 23.2741C212.983 22.9285 213.852 22.7557 214.794 22.7557C215.58 22.7557 216.312 22.8717 216.989 23.1037C217.671 23.3357 218.277 23.6648 218.807 24.0909C219.342 24.517 219.785 25.0237 220.135 25.6108C220.486 26.1932 220.722 26.8395 220.846 27.5497H218.594ZM228.156 37.7202C227.133 37.7202 226.24 37.4858 225.478 37.017C224.716 36.5483 224.124 35.8925 223.702 35.0497C223.281 34.2069 223.07 33.2221 223.07 32.0952C223.07 30.9635 223.281 29.974 223.702 29.1264C224.124 28.2789 224.716 27.6207 225.478 27.152C226.24 26.6832 227.133 26.4489 228.156 26.4489C229.178 26.4489 230.071 26.6832 230.833 27.152C231.595 27.6207 232.187 28.2789 232.609 29.1264C233.03 29.974 233.241 30.9635 233.241 32.0952C233.241 33.2221 233.03 34.2069 232.609 35.0497C232.187 35.8925 231.595 36.5483 230.833 37.017C230.071 37.4858 229.178 37.7202 228.156 37.7202ZM228.163 35.9375C228.826 35.9375 229.375 35.7623 229.81 35.4119C230.246 35.0616 230.568 34.5952 230.776 34.0128C230.989 33.4304 231.096 32.7888 231.096 32.0881C231.096 31.392 230.989 30.7528 230.776 30.1705C230.568 29.5833 230.246 29.1122 229.81 28.7571C229.375 28.402 228.826 28.2244 228.163 28.2244C227.495 28.2244 226.941 28.402 226.501 28.7571C226.065 29.1122 225.741 29.5833 225.528 30.1705C225.319 30.7528 225.215 31.392 225.215 32.0881C225.215 32.7888 225.319 33.4304 225.528 34.0128C225.741 34.5952 226.065 35.0616 226.501 35.4119C226.941 35.7623 227.495 35.9375 228.163 35.9375ZM240.206 37.7202C239.184 37.7202 238.291 37.4858 237.529 37.017C236.766 36.5483 236.175 35.8925 235.753 35.0497C235.332 34.2069 235.121 33.2221 235.121 32.0952C235.121 30.9635 235.332 29.974 235.753 29.1264C236.175 28.2789 236.766 27.6207 237.529 27.152C238.291 26.6832 239.184 26.4489 240.206 26.4489C241.229 26.4489 242.122 26.6832 242.884 27.152C243.646 27.6207 244.238 28.2789 244.659 29.1264C245.081 29.974 245.292 30.9635 245.292 32.0952C245.292 33.2221 245.081 34.2069 244.659 35.0497C244.238 35.8925 243.646 36.5483 242.884 37.017C242.122 37.4858 241.229 37.7202 240.206 37.7202ZM240.213 35.9375C240.876 35.9375 241.426 35.7623 241.861 35.4119C242.297 35.0616 242.619 34.5952 242.827 34.0128C243.04 33.4304 243.147 32.7888 243.147 32.0881C243.147 31.392 243.04 30.7528 242.827 30.1705C242.619 29.5833 242.297 29.1122 241.861 28.7571C241.426 28.402 240.876 28.2244 240.213 28.2244C239.546 28.2244 238.992 28.402 238.551 28.7571C238.116 29.1122 237.792 29.5833 237.578 30.1705C237.37 30.7528 237.266 31.392 237.266 32.0881C237.266 32.7888 237.37 33.4304 237.578 34.0128C237.792 34.5952 238.116 35.0616 238.551 35.4119C238.992 35.7623 239.546 35.9375 240.213 35.9375ZM252.236 41.8182C251.369 41.8182 250.624 41.7045 249.999 41.4773C249.378 41.25 248.872 40.9493 248.479 40.5753C248.086 40.2012 247.792 39.7917 247.598 39.3466L249.423 38.5938C249.551 38.8021 249.722 39.0223 249.935 39.2543C250.152 39.491 250.446 39.6922 250.815 39.858C251.189 40.0237 251.67 40.1065 252.257 40.1065C253.062 40.1065 253.727 39.91 254.253 39.517C254.778 39.1288 255.041 38.5085 255.041 37.6562V35.5114H254.906C254.778 35.7434 254.594 36.0014 254.352 36.2855C254.116 36.5696 253.789 36.8158 253.372 37.0241C252.955 37.2325 252.413 37.3366 251.746 37.3366C250.884 37.3366 250.107 37.1354 249.416 36.733C248.73 36.3258 248.185 35.7268 247.783 34.9361C247.385 34.1406 247.186 33.1629 247.186 32.0028C247.186 30.8428 247.383 29.8485 247.776 29.0199C248.173 28.1913 248.718 27.5568 249.409 27.1165C250.1 26.6714 250.884 26.4489 251.76 26.4489C252.437 26.4489 252.984 26.5625 253.401 26.7898C253.817 27.0123 254.142 27.2727 254.374 27.571C254.61 27.8693 254.793 28.1321 254.92 28.3594H255.077V26.5909H257.158V37.7415C257.158 38.679 256.94 39.4484 256.504 40.0497C256.069 40.651 255.479 41.0961 254.736 41.3849C253.997 41.6738 253.164 41.8182 252.236 41.8182ZM252.214 35.5753C252.825 35.5753 253.341 35.4332 253.763 35.1491C254.189 34.8603 254.511 34.4484 254.729 33.9134C254.951 33.3736 255.062 32.7273 255.062 31.9744C255.062 31.2405 254.954 30.5942 254.736 30.0355C254.518 29.4768 254.198 29.0412 253.777 28.7287C253.356 28.4115 252.835 28.2528 252.214 28.2528C251.575 28.2528 251.043 28.4186 250.616 28.75C250.19 29.0767 249.868 29.5218 249.651 30.0852C249.438 30.6487 249.331 31.2784 249.331 31.9744C249.331 32.6894 249.44 33.3168 249.658 33.8565C249.875 34.3963 250.197 34.8177 250.624 35.1207C251.054 35.4238 251.585 35.5753 252.214 35.5753ZM262.129 22.9545V37.5H260.006V22.9545H262.129ZM269.688 37.7202C268.613 37.7202 267.687 37.4905 266.911 37.0312C266.139 36.5672 265.542 35.9162 265.121 35.0781C264.704 34.2353 264.496 33.2481 264.496 32.1165C264.496 30.9991 264.704 30.0142 265.121 29.1619C265.542 28.3097 266.13 27.6444 266.882 27.1662C267.64 26.688 268.525 26.4489 269.539 26.4489C270.154 26.4489 270.751 26.5507 271.328 26.7543C271.906 26.9579 272.425 27.2775 272.884 27.7131C273.343 28.1487 273.705 28.7145 273.971 29.4105C274.236 30.1018 274.368 30.9422 274.368 31.9318V32.6847H265.696V31.0938H272.287C272.287 30.535 272.174 30.0402 271.946 29.6094C271.719 29.1738 271.4 28.8305 270.988 28.5795C270.58 28.3286 270.102 28.2031 269.553 28.2031C268.956 28.2031 268.435 28.3499 267.99 28.6435C267.55 28.9323 267.209 29.3111 266.968 29.7798C266.731 30.2438 266.613 30.7481 266.613 31.2926V32.5355C266.613 33.2647 266.74 33.8849 266.996 34.3963C267.257 34.9077 267.619 35.2983 268.083 35.5682C268.547 35.8333 269.089 35.9659 269.709 35.9659C270.112 35.9659 270.479 35.9091 270.81 35.7955C271.141 35.6771 271.428 35.5019 271.669 35.2699C271.911 35.0379 272.096 34.7514 272.223 34.4105L274.233 34.7727C274.072 35.3646 273.783 35.883 273.367 36.3281C272.955 36.7685 272.436 37.1117 271.811 37.358C271.191 37.5994 270.483 37.7202 269.688 37.7202Z" fill="#1D1C2B"/>
</g>
<defs>
<filter id="filter0_d_427_5003" x="-4" y="0" width="339" height="69" filterUnits="userSpaceOnUse" color-interpolation-filters="sRGB">
<feFlood flood-opacity="0" result="BackgroundImageFix"/>
<feColorMatrix in="SourceAlpha" type="matrix" values="0 0 0 0 0 0 0 0 0 0 0 0 0 0 0 0 0 0 127 0" result="hardAlpha"/>
<feOffset dy="4"/>
<feGaussianBlur stdDeviation="2"/>
<feComposite in2="hardAlpha" operator="out"/>
<feColorMatrix type="matrix" values="0 0 0 0 0 0 0 0 0 0 0 0 0 0 0 0 0 0 0.25 0"/>
<feBlend mode="normal" in2="BackgroundImageFix" result="effect1_dropShadow_427_5003"/>
<feBlend mode="normal" in="SourceGraphic" in2="effect1_dropShadow_427_5003" result="shape"/>
</filter>
</defs>
</svg>
